<svg width="122" height="53" viewBox="0 0 122 53" fill="none" xmlns="http://www.w3.org/2000/svg">
<path fill-rule="evenodd" clip-rule="evenodd" d="M79.5694 32.5888C78.12 34.1436 76.2587 34.9332 74.0381 34.9332C71.8166 34.9332 69.9553 34.1436 68.5068 32.5888C67.1233 31.1078 66.3284 28.7396 66.3284 26.0939C66.3284 23.5114 67.1321 21.1757 68.5305 19.6841C69.9939 18.1294 71.8465 17.3362 74.0364 17.33C76.2297 17.3362 78.0823 18.1294 79.5448 19.6841C80.945 21.1757 81.747 23.5114 81.747 26.0939C81.747 28.7396 80.9529 31.1078 79.5694 32.5888ZM60.1216 26.0939C60.1216 26.2133 60.1268 26.331 60.1303 26.4487C57.908 24.4258 54.6948 23.673 52.7315 23.2803C49.0993 22.5144 46.3245 21.8134 46.3245 19.2274C46.3245 17.4029 47.9583 16.0757 51.0968 16.3032C53.9648 16.5114 55.1726 18.2646 55.5038 19.9565C55.5512 20.234 55.6795 20.4361 55.9957 20.4387L61.1537 20.4826C61.1783 20.4826 61.1994 20.48 61.2213 20.4782C60.494 22.1744 60.1216 24.063 60.1216 26.0939ZM51.3489 35.5824C48.8543 35.5824 46.1057 34.6961 45.4724 31.2668C45.4188 30.9391 45.2642 30.8039 45.013 30.7968L40.0263 30.7301V21.9153C40.6816 24.4987 42.8521 26.2871 47.5463 27.3438C50.6884 28.0957 56.1389 28.5736 56.1389 31.7991C56.1389 34.0478 54.4831 35.6351 51.3489 35.5824ZM26.5112 34.9368C22.4881 34.9368 18.8023 31.7701 18.8023 26.0974C18.8023 21.6465 21.5658 17.3335 26.5375 17.3335C28.6914 17.3335 34.1524 18.0714 34.1524 26.0974C34.1524 34.1444 28.4507 34.9368 26.5103 34.9368H26.5112ZM87.8053 23.9321C88.9499 25.4588 91.0159 26.5893 94.3723 27.3447C97.5135 28.0966 102.965 28.5745 102.965 31.8C102.965 34.0487 101.308 35.636 98.1749 35.5833C95.6811 35.5833 92.9308 34.6969 92.2984 31.2677C92.2457 30.94 92.0911 30.8047 91.839 30.7977L87.2186 30.7362C87.7061 29.2983 87.9547 27.7409 87.9547 26.0947C87.9544 25.3713 87.9045 24.6487 87.8053 23.9321ZM97.8341 40.0719C103.367 40.0719 109.888 38.012 109.378 31.3309C108.814 25.3999 102.642 23.8979 99.5575 23.2812C95.9244 22.5152 93.1495 21.8143 93.1495 19.2283C93.1495 17.4038 94.7834 16.0765 97.9228 16.304C100.791 16.5122 101.999 18.2655 102.33 19.9573C102.377 20.2349 102.506 20.4369 102.822 20.4396L107.98 20.4835C108.372 20.4861 108.494 20.2823 108.445 20.003C107.435 13.8208 102.27 12.0719 97.517 12.0719C92.7709 12.0719 87.0525 13.4053 86.6467 19.3091C86.6327 19.5375 86.6274 19.7623 86.6274 19.9828C85.872 18.4122 84.7827 16.9699 83.3791 15.6927C80.7878 13.3561 77.557 12.1044 74.0337 12.0737H73.9169C72.2339 12.0737 70.5869 12.3837 69.0207 12.9986C67.4287 13.6283 65.9639 14.541 64.6972 15.6927C63.3681 16.9014 62.3184 18.2576 61.5683 19.7307C60.451 13.7725 55.372 12.0719 50.6901 12.0719C46.3332 12.0719 41.1559 13.1989 40.0263 17.9572V13.234C40.0261 13.113 39.9779 12.9971 39.8922 12.9116C39.8066 12.8261 39.6905 12.7781 39.5695 12.7781H34.712C34.591 12.7784 34.475 12.8266 34.3896 12.9122C34.3041 12.9979 34.2561 13.1139 34.2561 13.2349V14.5086C34.2561 14.7229 34.1129 14.7976 33.9381 14.6729C32.2103 13.4194 29.6541 12.0745 26.5779 12.0745C24.8493 12.0745 23.1987 12.3785 21.6712 12.9775C20.1428 13.5784 18.6899 14.4928 17.3565 15.6962C15.8386 17.077 14.6826 18.6511 13.9245 20.3746C13.1665 22.098 12.7817 24.0235 12.7817 26.0965C12.7817 28.0316 13.1226 29.8464 13.7937 31.4864C14.4648 33.1264 15.4863 34.6434 16.8312 35.9961C18.1751 37.3488 19.679 38.3766 21.2979 39.053C22.9168 39.7267 24.7008 40.0684 26.6034 40.0684C29.8728 40.0684 32.3262 38.6761 33.9337 37.4103C34.1111 37.2751 34.2561 37.348 34.2561 37.5693V38.9071C34.2561 39.1584 34.4616 39.3639 34.7128 39.3639H39.5704C39.6913 39.3634 39.8072 39.3151 39.8926 39.2296C39.978 39.144 40.0261 39.0281 40.0263 38.9071V34.4009C42.3163 39.7855 48.1516 40.071 51.0081 40.071C55.7831 40.071 61.2898 38.5338 62.3826 33.8185C62.9079 34.5989 63.5071 35.327 64.1719 35.9926C66.7755 38.6129 70.1872 40.0218 74.0425 40.064H74.2006C76.0312 40.064 77.7977 39.7126 79.4508 39.0178C81.1198 38.3121 82.6332 37.2841 83.9043 35.9926C84.8552 35.0446 85.6673 33.967 86.3164 32.7917C88.0478 39.7337 94.7166 40.071 97.8341 40.071V40.0719Z" fill="white"/>
</svg>
