<svg width="122" height="65" viewBox="0 0 122 65" fill="none" xmlns="http://www.w3.org/2000/svg">
<path d="M49.3799 32.8492V37.7925C50.0786 38.8754 51.3013 39.5916 52.8734 39.5916C55.2314 39.5916 56.8734 37.8274 56.8734 35.3645C56.8734 32.954 55.1441 31.1898 52.821 31.1898C51.3013 31.1724 50.1135 31.8187 49.3799 32.8492ZM53.4498 42.1243C51.8253 42.1243 50.4105 41.6353 49.345 40.6571V41.8449H46.3057V22.0545H49.3799V30.2815C50.4629 29.1112 51.9476 28.5523 53.6769 28.5523C57.1354 28.5523 59.9476 31.3296 59.9476 35.3121C59.9825 39.2422 57.048 42.1243 53.4498 42.1243ZM62.0437 22.0545H65.1179V41.8274H62.0437V22.0545ZM70.3406 33.775H76.7686C76.4017 32.2029 75.2838 31.0676 73.5721 31.0676C72.0175 31.0501 70.7598 32.0283 70.3406 33.775ZM74.4454 42.1069C70.2009 42.1069 67.1616 39.3645 67.1616 35.347C67.1616 31.347 70.2009 28.5697 73.5895 28.5697C77.572 28.5697 79.8428 31.4169 79.8428 35.3994V36.0457H70.2533C70.5502 38.1767 72.0699 39.5566 74.69 39.5566C76.3843 39.5566 78.3406 38.8754 79.4934 37.9671V40.6221C78.3755 41.4606 76.4541 42.1069 74.4454 42.1069ZM85.1179 32.7269V41.8274H82.0437V28.8318H85.0655V30.2641C85.9738 29.1986 87.4061 28.5348 89.1528 28.5348C92.3493 28.5348 94.131 30.6658 94.131 33.775V41.8274H91.0568V34.1418C91.0568 32.4649 90.0437 31.2422 88.3144 31.2422C86.8646 31.2422 85.7991 31.8536 85.1179 32.7269ZM103.266 39.5392C104.786 39.5392 105.974 38.8929 106.707 37.8623V32.9191C106.009 31.8361 104.786 31.12 103.214 31.12C100.856 31.12 99.214 32.8842 99.214 35.3296C99.214 37.775 100.943 39.5392 103.266 39.5392ZM106.76 40.3601C105.694 41.513 104.21 42.1243 102.515 42.1243C99.0044 42.1243 96.1223 39.382 96.1223 35.4169C96.1223 31.4868 99.0393 28.5872 102.638 28.5872C104.227 28.5872 105.642 29.0414 106.69 30.0195V22.0719H109.782V41.8623H106.742V40.3601H106.76ZM27.476 27.6964L28.821 26.6833C31.6856 24.5872 31.5808 22.0195 31.0742 20.4999C30.5153 18.7706 28.9258 16.9191 26.1485 16.9191H12V12.0283H26.1485C30.6026 12.0283 34.3406 14.7706 35.7205 18.9802C37.083 23.2248 35.6507 27.6265 32.0699 30.2466L31.5284 30.6309L27.476 27.6964ZM29.5721 32.0807L32.0699 33.8973C35.6681 36.4999 37.1004 40.9191 35.738 45.1636C34.3755 49.4082 30.6026 52.1156 26.1659 52.1156H12.0175V47.2248H26.1485C28.9258 47.2248 30.5153 45.3732 31.0742 43.644C31.6507 41.9147 31.441 39.4868 29.2052 37.8623L25.4323 35.1025L21.2751 32.0807L16.9083 28.9366V35.2597L19.2489 33.5479L23.4061 36.5697L15.8952 42.0195C15.1616 42.561 14.1659 42.6309 13.345 42.2117C12.524 41.7925 12.0175 40.954 12.0175 40.0283V24.1156C12.0175 23.2073 12.5415 22.3514 13.345 21.9497C14.1659 21.5304 15.1441 21.6003 15.8952 22.1418L25.4148 29.0588L29.5721 32.0807Z" fill="white"/>
</svg>
