<svg width="200" height="59" viewBox="0 0 200 59" fill="none" xmlns="http://www.w3.org/2000/svg">
<path fill-rule="evenodd" clip-rule="evenodd" d="M24.6378 34.0015C28.05 33.8738 30.0913 31.7665 30.0913 27.0723C30.0913 21.3567 27.3164 18.1318 23.9362 17.8761C23.6491 17.8761 23.3619 17.8442 23.0432 17.8442C22.1504 17.8442 21.9272 18.2593 21.8951 18.9937C21.8632 19.7281 21.8632 21.9315 21.8632 26.5296C21.8632 29.9781 21.8951 32.0539 21.8951 32.6604C21.8951 33.6183 22.3097 34.0337 23.7127 34.0337C23.9999 34.0337 24.3188 34.0337 24.6378 34.0015ZM12.8062 35.9813C12.8062 35.2469 13.157 34.8318 13.7629 34.6082C14.0497 34.5127 14.337 34.3849 14.6878 34.2889C15.1661 34.0976 15.4213 33.778 15.4529 33.0116C15.4851 31.8623 15.517 28.8288 15.517 26.0185V18.866C15.4851 18.1954 15.2618 17.8442 14.8153 17.6845C14.4645 17.5887 14.1775 17.4929 13.8905 17.4293C13.2845 17.3013 12.838 16.8223 12.838 15.9284C12.838 14.7787 13.9221 14.1722 16.027 14.1722C18.0683 14.1722 22.8199 14.2041 25.4032 14.2041C32.7702 14.2041 37.0114 18.6425 37.0114 25.4759C37.0114 32.9799 32.4193 37.7376 24.8292 37.7376H15.8359C14.1137 37.7376 12.8062 37.2267 12.8062 35.9813Z" fill="white"/>
<path fill-rule="evenodd" clip-rule="evenodd" d="M55.9456 42.1442C55.9456 40.6115 57.0942 39.0788 59.0394 39.0788C60.3786 39.0788 60.9846 39.5897 61.4629 40.1644C62.0688 40.867 62.3556 41.6333 63.185 41.6333C64.0782 41.6333 64.8113 40.9627 64.8113 39.7813C64.8113 38.6636 64.2372 37.3864 63.3126 35.2469C62.0048 32.1814 60.0596 27.7431 58.5289 24.2305C58.3377 23.7835 58.1144 23.3364 57.7316 23.1768C57.4765 23.0171 57.2213 22.8894 56.9345 22.8255C56.2007 22.6339 55.8821 22.0911 55.8821 21.3566C55.8821 20.5586 56.424 19.9836 57.3171 19.8561C58.5929 19.6964 59.6134 19.6004 61.8458 19.6004C63.8229 19.6004 65.0029 19.6964 66.0869 19.8561C66.9162 19.9836 67.331 20.5586 67.331 21.2928C67.331 22.0911 66.9483 22.5381 66.3107 22.7936C65.9599 22.9213 65.5451 23.0491 65.2896 23.2087C65.0029 23.4003 64.9074 23.7516 65.0986 24.1986C65.1943 24.486 65.3218 24.7734 65.4494 25.0927C66.2467 27.2641 67.331 29.9783 68.0326 31.5749C68.1283 31.7985 68.2237 31.894 68.4151 31.894C68.5745 31.894 68.7342 31.7985 68.8299 31.5428C69.4994 29.9145 70.4243 27.296 71.0937 25.1885C71.2534 24.7095 71.381 24.2625 71.4446 23.8793C71.5085 23.528 71.381 23.2406 71.1259 23.1129C70.8391 22.9533 70.52 22.8255 70.201 22.7297C69.5315 22.5381 69.2126 22.0591 69.2126 21.3247C69.2126 20.5586 69.5634 19.9836 70.6475 19.7922C71.5085 19.6642 72.4656 19.6004 73.9963 19.6004C75.3996 19.6004 76.1012 19.6964 76.7067 19.7922C77.6316 19.9516 78.0464 20.4308 78.0464 21.2608C78.0464 22.0272 77.6316 22.5381 76.994 22.7936C76.7067 22.9213 76.5792 22.9852 76.2924 23.1768C76.0372 23.3364 75.9096 23.5919 75.6864 24.1347C74.315 27.6473 72.8478 31.5428 71.1259 35.5343C69.6591 38.7914 68.511 41.0905 67.1715 42.7829C65.4815 44.8904 63.7589 46.0719 60.9846 46.0719C57.9548 46.0719 55.9456 44.5709 55.9456 42.1442Z" fill="white"/>
<path fill-rule="evenodd" clip-rule="evenodd" d="M89.8877 31.0321V26.2423C89.8877 24.5501 88.6761 23.6238 87.3044 23.6238C85.3912 23.6238 84.1158 25.1566 84.1158 28.2221C84.1158 31.7985 85.5188 33.5867 87.4641 33.5867C88.9949 33.5867 89.8877 32.6606 89.8877 31.0321ZM77.833 29.0523C77.833 22.7619 80.5755 19.409 84.7852 19.409C87.2087 19.409 88.5484 20.6224 89.2818 21.8358C89.3777 21.9633 89.4412 22.0274 89.6009 22.0274C89.792 22.0274 89.8877 21.8997 89.8877 21.6762V17.8124C89.8877 17.1418 89.6644 16.8225 89.3458 16.599C89.0585 16.4074 88.7718 16.2797 88.2933 16.1839C87.5277 16.0242 87.1452 15.5452 87.1452 14.7788C87.1452 13.8528 87.9745 13.1822 89.2181 12.7991C90.3982 12.4797 91.6736 12.2245 92.9174 12.0965C93.9063 12.001 94.5437 12.1926 95.0222 12.5117C95.6601 12.9589 95.979 13.6934 95.979 14.8746C95.979 18.2594 95.947 21.9314 95.947 26.2423C95.947 28.8288 95.9155 31.4155 95.947 32.5968C95.979 33.1077 96.1701 33.427 96.4896 33.5547C96.7125 33.6825 96.9679 33.7783 97.3187 33.8421C98.0203 33.9698 98.3711 34.385 98.3711 35.1194C98.3711 35.9175 97.9242 36.4603 97.0314 36.8437C95.7558 37.3864 94.6394 37.6738 93.4598 37.8015C92.4391 37.8653 91.8969 37.8653 91.291 37.5462C90.6214 37.195 90.2068 36.8757 90.0474 35.4387C90.0152 34.9915 89.9517 34.832 89.7601 34.832C89.6326 34.832 89.5052 34.9276 89.4093 35.0875C88.4845 36.716 86.9536 37.9611 84.5941 37.9611C80.0336 37.9611 77.833 34.2892 77.833 29.0523Z" fill="white"/>
<path fill-rule="evenodd" clip-rule="evenodd" d="M112.67 27.0406C111.394 27.0406 110.406 26.5616 109.64 25.8591C109.131 25.412 109.003 25.2204 108.652 25.2845C108.206 25.3801 108.046 25.987 108.014 26.817C107.982 27.6473 107.95 28.5416 107.95 29.4993C107.95 30.9363 107.95 32.3413 107.982 33.1396C108.014 33.8421 108.301 34.0976 108.62 34.1934C109.098 34.353 109.513 34.4488 109.96 34.5763C110.502 34.7362 110.916 35.1833 110.916 35.9813C110.916 36.7477 110.438 37.3863 109.385 37.5462C108.206 37.7059 106.834 37.7376 104.889 37.7376C103.039 37.7376 101.317 37.642 100.616 37.4824C99.9139 37.3546 99.4991 36.7799 99.4991 36.0452C99.4991 35.2788 99.9139 34.832 100.584 34.6085C100.87 34.5127 101.094 34.4488 101.317 34.3211C101.668 34.1295 101.796 33.8738 101.827 33.2354C101.859 32.0539 101.859 30.8724 101.859 29.0206C101.859 27.4237 101.859 26.3061 101.827 25.5398C101.796 25.0288 101.668 24.8372 101.317 24.6139C101.062 24.4541 100.743 24.4221 100.36 24.3583C99.5631 24.2308 99.1805 23.7835 99.1805 23.0812C99.1483 22.2509 99.8821 21.4526 101.094 20.8459C102.497 20.1434 103.709 19.8241 104.857 19.6964C105.559 19.6006 106.069 19.6006 106.515 19.7602C107.089 19.9518 107.44 20.3989 107.568 21.0056C107.695 21.5801 107.791 22.0913 107.791 22.4745C107.823 22.8896 108.174 23.0171 108.365 22.5703C108.907 21.4207 109.513 20.5266 110.342 19.9838C110.948 19.6006 111.682 19.377 112.543 19.377C114.647 19.377 115.891 21.0056 115.891 23.1131C115.891 25.3801 114.616 27.0406 112.67 27.0406Z" fill="white"/>
<path fill-rule="evenodd" clip-rule="evenodd" d="M124.815 26.817H126.951C127.781 26.817 128.099 26.5935 128.099 25.891C128.099 24.6776 127.143 23.4322 125.26 23.4322C123.443 23.4322 122.359 24.6137 122.231 25.9229C122.168 26.6255 122.455 26.817 122.965 26.817H124.815ZM116.172 28.9565C116.172 23.0491 120.669 19.409 126.217 19.409C131.002 19.409 134.127 22.3785 134.127 26.9128C134.127 28.5733 133.298 29.4674 131.097 29.4674H127.143H123.379C122.805 29.4674 122.614 29.7548 122.646 30.2019C122.805 32.3094 124.942 33.3631 127.206 33.3631C129.184 33.3631 130.395 32.7245 131.479 31.5111C131.767 31.1598 132.181 31.0002 132.533 31.0002C133.234 31.0002 133.84 31.5111 133.84 32.1497C133.84 32.4371 133.744 32.7245 133.585 33.1396C132.66 35.4066 130.49 37.9611 125.612 37.9611C119.552 37.9611 116.172 34.385 116.172 28.9565Z" fill="white"/>
<path fill-rule="evenodd" clip-rule="evenodd" d="M145.84 32.1178C145.936 31.7344 145.967 31.3193 145.967 30.8403V30.7128C145.967 29.8187 145.68 29.691 145.012 29.7865L144.883 29.8187C144.565 29.8504 144.118 29.9464 143.513 30.0742C142.141 30.3935 141.375 30.968 141.375 32.1497C141.375 33.2991 142.141 34.0337 143.448 34.0337C144.692 34.0337 145.522 33.3951 145.84 32.1178ZM135.252 33.2991C135.252 29.3716 138.696 28.254 142.396 27.6792C143.097 27.5834 143.544 27.5196 144.055 27.3919C145.235 27.0725 145.745 26.5935 145.745 25.5079V25.4121C145.745 24.0709 144.883 23.1129 143.353 23.1129C142.045 23.1129 141.152 23.8474 140.737 25.0289C140.26 26.2423 139.461 27.1683 137.867 27.1683C136.369 27.1683 135.285 26.2742 135.285 24.8054C135.285 21.4206 140.163 19.5049 143.991 19.5049C149.443 19.5049 151.804 22.0911 151.804 26.2104C151.804 28.8927 151.772 30.6168 151.804 31.9579C151.804 33.3629 152.123 33.6503 152.729 33.9058C152.951 34.0016 153.143 34.0654 153.494 34.2251C153.877 34.4167 154.228 34.7041 154.228 35.4066C154.228 36.1091 153.909 36.5881 153.271 37.0032C152.441 37.578 151.23 37.8654 149.858 37.8654C148.488 37.8654 147.818 37.6738 147.148 37.0671C146.734 36.7158 146.446 36.1413 146.287 35.6621C146.222 35.4066 146.159 35.3108 146 35.3108C145.84 35.3108 145.712 35.4387 145.553 35.6301C144.437 37.099 142.587 37.9931 140.515 37.9931C137.039 37.9931 135.252 36.1091 135.252 33.2991Z" fill="white"/>
<path fill-rule="evenodd" clip-rule="evenodd" d="M174.197 22.7619C174.262 22.9535 174.389 23.0493 174.485 23.0493C174.612 23.0493 174.675 22.9535 174.803 22.8257C176.048 20.9417 177.61 19.409 180.576 19.409C182.33 19.409 183.605 20.1115 184.498 21.2611C185.295 22.2829 185.614 23.7199 185.711 25.3484C185.774 26.466 185.806 27.6794 185.806 28.9567C185.806 30.4892 185.806 31.9903 185.838 33.1396C185.838 33.7783 185.934 34.0978 186.189 34.2572C186.38 34.3852 186.603 34.4808 186.858 34.5766C187.528 34.832 187.878 35.2471 187.878 35.9816C187.878 36.716 187.465 37.2908 186.699 37.4504C185.806 37.642 184.626 37.7378 182.745 37.7378C180.799 37.7378 179.651 37.642 178.95 37.4504C178.311 37.2908 177.897 36.8118 177.897 36.0454C177.897 35.3429 178.248 34.9597 178.853 34.6723C179.045 34.5766 179.237 34.4808 179.364 34.353C179.619 34.0978 179.651 33.8421 179.682 33.2673C179.715 32.4054 179.715 30.617 179.715 28.9567C179.715 27.0406 179.619 25.6996 178.981 24.9013C178.503 24.3266 177.961 24.0392 177.036 24.0392C176.239 24.0392 175.505 24.4224 175.122 25.1568C174.74 25.8912 174.644 27.5836 174.644 29.212V33.1396C174.675 33.7783 174.835 34.0656 175.09 34.2572C175.25 34.3852 175.377 34.4808 175.569 34.5766C176.174 34.8959 176.494 35.2471 176.494 35.9816C176.494 36.7479 176.079 37.2908 175.377 37.4504C174.517 37.642 173.336 37.7378 171.454 37.7378C169.573 37.7378 168.553 37.6099 167.788 37.4504C167.054 37.2908 166.671 36.7799 166.671 36.0454C166.671 35.3429 167.022 34.9917 167.596 34.7043C167.851 34.5766 168.106 34.449 168.202 34.353C168.457 34.0978 168.553 33.906 168.553 33.2673V29.0842C168.553 26.945 168.425 25.6996 167.788 24.9013C167.341 24.3266 166.831 24.0392 165.874 24.0392C164.98 24.0392 164.343 24.5182 163.992 25.1249C163.578 25.8274 163.481 27.6156 163.481 29.212V33.3314C163.481 33.874 163.642 34.1934 163.865 34.353C163.992 34.4808 164.152 34.6085 164.343 34.7043C164.885 34.9917 165.235 35.2471 165.235 35.9496C165.235 36.7479 164.854 37.2908 163.992 37.4824C162.844 37.7378 161.792 37.7378 160.005 37.7378C158.124 37.7378 156.913 37.642 156.242 37.4824C155.509 37.3546 155.127 36.7799 155.127 36.0454C155.127 35.3429 155.509 34.8642 156.179 34.6085C156.466 34.5129 156.721 34.449 156.944 34.3211C157.263 34.1295 157.391 33.874 157.423 33.2354C157.454 32.022 157.454 30.6808 157.454 29.0206C157.454 27.3282 157.454 26.3383 157.423 25.54C157.391 24.9652 157.167 24.6778 156.786 24.5501C156.529 24.4543 156.307 24.3904 155.956 24.3585C155.159 24.2946 154.775 23.7837 154.775 23.0812C154.775 22.251 155.477 21.4207 156.689 20.8459C158.124 20.1754 159.336 19.8241 160.484 19.6964C161.282 19.6006 161.824 19.6645 162.271 19.9199C162.781 20.2073 163.163 20.5905 163.258 21.293C163.323 21.772 163.323 22.251 163.323 22.5703C163.323 22.8257 163.45 22.9535 163.578 22.9535C163.705 22.9535 163.802 22.8577 163.897 22.6661C165.077 20.8779 166.576 19.409 169.382 19.409C172.092 19.409 173.368 20.7821 174.197 22.7619Z" fill="white"/>
<path fill-rule="evenodd" clip-rule="evenodd" d="M48.882 32.1178C48.9777 31.7344 49.0096 31.3193 49.0096 30.8403V30.7128C49.0096 29.8187 48.7228 29.691 48.0529 29.7865L47.9253 29.8187C47.6064 29.8504 47.1601 29.9464 46.554 30.0742C45.1828 30.3935 44.4176 30.968 44.4176 32.1497C44.4176 33.2991 45.1828 34.0337 46.4903 34.0337C47.7339 34.0337 48.5634 33.3951 48.882 32.1178ZM38.2942 33.2991C38.2942 29.3716 41.7383 28.254 45.4379 27.6792C46.1395 27.5834 46.586 27.5196 47.0963 27.3919C48.2761 27.0725 48.7863 26.5935 48.7863 25.5079V25.4121C48.7863 24.0709 47.9253 23.1129 46.3949 23.1129C45.0871 23.1129 44.194 23.8474 43.7795 25.0289C43.3012 26.2423 42.5039 27.1683 40.9095 27.1683C39.4101 27.1683 38.3263 26.2742 38.3263 24.8054C38.3263 21.4206 43.2055 19.5049 47.0323 19.5049C52.4856 19.5049 54.8458 22.0911 54.8458 26.2104C54.8458 28.8927 54.8136 30.6168 54.8458 31.9579C54.8458 33.3629 55.1644 33.6503 55.7706 33.9058C55.9937 34.0016 56.1855 34.0654 56.5363 34.2251C56.9185 34.4167 57.2693 34.7041 57.2693 35.4066C57.2693 36.1091 56.9506 36.5881 56.313 37.0032C55.4839 37.578 54.2717 37.8654 52.9006 37.8654C51.5293 37.8654 50.8593 37.6738 50.1896 37.0671C49.7752 36.7158 49.4879 36.1413 49.3285 35.6621C49.265 35.4066 49.2007 35.3108 49.0417 35.3108C48.882 35.3108 48.7544 35.4387 48.5952 35.6301C47.4788 37.099 45.629 37.9931 43.5563 37.9931C40.0804 37.9931 38.2942 36.1091 38.2942 33.2991Z" fill="white"/>
</svg>
