<svg width="184" height="65" viewBox="0 0 184 65" fill="none" xmlns="http://www.w3.org/2000/svg">
<path d="M31.9701 37.2903C36.6774 37.2903 38.5136 34.4159 38.5136 29.4978C38.5136 24.5808 36.3663 21.1524 32.108 21.1524H27.3356V37.2903H31.9701ZM22.3149 16.8589H32.7315C39.3434 16.8589 43.6016 22.1919 43.6016 29.4978C43.6016 33.5143 42.2509 37.0476 39.6545 39.2291C37.8195 40.7519 35.4305 41.6181 32.3155 41.6181H22.3149V16.8589ZM57.9409 32.7541C57.9409 29.2903 56.3144 26.9356 53.441 26.9356C50.5323 26.9356 48.9389 29.2903 48.9389 32.7541C48.9389 36.2167 50.5323 38.5361 53.441 38.5361C56.3144 38.5361 57.9409 36.2167 57.9409 32.7541ZM44.1621 32.7541C44.1621 27.4553 47.9359 23.3692 53.441 23.3692C58.945 23.3692 62.7188 27.4553 62.7188 32.7541C62.7188 38.0506 58.945 42.1378 53.441 42.1378C47.9348 42.1378 44.161 38.0517 44.161 32.7541H44.1621ZM63.4967 32.7541C63.4967 27.4553 66.9594 23.3692 72.3596 23.3692C76.9654 23.3692 79.8035 26.0363 80.4269 29.8796H75.8223C75.5111 28.3215 74.2995 27.143 72.5682 27.143C69.729 27.143 68.2758 29.3257 68.2758 32.7541C68.2758 36.113 69.6253 38.364 72.4987 38.364C74.4032 38.364 75.7538 37.3599 76.065 35.3516H80.6002C80.289 39.1254 77.345 42.1378 72.6024 42.1378C66.9947 42.1378 63.4967 38.0517 63.4967 32.7541ZM92.8595 41.6192V39.5414H92.7558C91.5442 41.169 90.1594 42.1036 87.6667 42.1036C83.7196 42.1036 81.5039 39.5767 81.5039 35.697V23.8537H86.177V34.9003C86.177 36.9781 87.1127 38.1212 89.1199 38.1212C91.3356 38.1212 92.6862 36.4595 92.6862 34.1047V23.8537H97.3947V41.6192H92.8595ZM120.334 41.6192H125.042V23.8537H120.334V41.6192ZM120.334 21.3709H125.042V16.9681H120.334V21.3709ZM139.424 31.9563C139.424 29.3599 138.039 27.1441 135.2 27.1441C132.811 27.1441 131.219 29.0134 131.219 31.9916C131.219 35.004 132.811 36.7706 135.235 36.7706C138.212 36.7706 139.424 34.5891 139.424 31.9574V31.9563ZM126.995 42.1378H131.667C132.048 43.2457 133.051 44.1119 135.233 44.1119C137.899 44.1119 139.18 42.8308 139.18 40.4065V38.4666H139.076C138.037 39.644 136.687 40.5444 134.436 40.5444C130.49 40.5444 126.613 37.4283 126.613 32.0611C126.613 26.7623 129.797 23.3692 134.298 23.3692C136.514 23.3692 138.141 24.2343 139.214 25.724H139.284V23.8537H143.819V40.2675C143.819 42.7612 143.022 44.4572 141.707 45.6699C140.217 47.0548 137.933 47.6782 135.303 47.6782C130.455 47.6782 127.478 45.6004 126.994 42.1378H126.995ZM150.444 26.2779H150.548C151.759 24.3734 153.387 23.3692 155.81 23.3692C159.48 23.3692 161.938 26.1389 161.938 30.0175V41.6181H157.229V30.7105C157.229 28.8059 156.121 27.4553 154.148 27.4553C152.071 27.4553 150.548 29.1171 150.548 31.5414V41.6181H145.839V23.8537H150.444V26.2779ZM109.604 26.6928C105.934 25.8983 104.203 25.3091 104.203 23.2997C104.203 21.5342 105.968 20.391 108.67 20.391C111.134 20.391 113.017 21.5475 113.403 23.8537H118.232C117.741 19.0459 114.174 16.4087 108.704 16.4087C103.2 16.4087 99.2176 18.9367 99.2176 23.8194C99.2176 28.9792 103.268 30.1566 107.7 31.1607C111.474 32.0269 113.828 32.5113 113.828 34.9345C113.828 37.2208 111.577 38.1212 109.016 38.1212C105.485 38.1212 103.788 36.9439 103.442 33.9657H98.5257C98.6989 39.1949 102.507 42.172 109.224 42.172C114.797 42.172 118.848 39.3681 118.848 34.3463C118.848 29.0134 114.693 27.8018 109.604 26.6928Z" fill="white"/>
</svg>
