<svg width="183" height="65" viewBox="0 0 183 65" fill="none" xmlns="http://www.w3.org/2000/svg">
<path fill-rule="evenodd" clip-rule="evenodd" d="M67.8383 37.9462C67.8383 38.6243 67.3412 39.1817 66.634 39.1817C65.946 39.1817 65.449 38.623 65.449 37.9462V26.1659C65.449 25.4877 65.946 24.9303 66.6532 24.9303C67.3412 24.9303 67.8383 25.489 67.8383 26.1659V37.9462Z" fill="white"/>
<path fill-rule="evenodd" clip-rule="evenodd" d="M83.2821 26.1658V36.9303C83.2821 38.3855 82.537 39.2033 81.3519 39.2033H81.257C80.1295 39.2033 79.5935 38.5252 79.1162 37.5283L76.7077 32.6446L74.5669 27.602L74.6245 32.4858L74.6437 37.9271C74.6437 38.6052 74.1471 39.1626 73.4394 39.1626C72.7514 39.1626 72.2549 38.6039 72.2549 37.9271V27.1626C72.2549 25.8268 72.9999 24.8896 74.3002 24.8896H74.3957C75.5999 24.8896 76.0965 25.5678 76.5749 26.5646L78.9445 31.409L80.9706 36.1138L80.9135 31.6083L80.8943 26.1671C80.8943 25.489 81.3909 24.9315 82.0986 24.9315C82.785 24.9303 83.2821 25.4878 83.2821 26.1658Z" fill="white"/>
<path fill-rule="evenodd" clip-rule="evenodd" d="M92.8586 37.9271C92.8586 38.6052 92.3621 39.1626 91.6543 39.1626C90.9669 39.1626 90.4698 38.6039 90.4698 37.9271V27.263H87.5071C86.8959 27.263 86.3994 26.7842 86.3994 26.0871C86.3994 25.409 86.8959 24.9315 87.5071 24.9315H95.8213C96.4325 24.9315 96.9296 25.4103 96.9296 26.1074C96.9296 26.7855 96.4325 27.263 95.8213 27.263H92.8586V37.9271Z" fill="white"/>
<path fill-rule="evenodd" clip-rule="evenodd" d="M100.045 37.5283V26.4655C100.045 25.4293 100.599 24.8515 101.613 24.8909H108.494C109.105 24.8909 109.602 25.3886 109.602 26.0668C109.602 26.7448 109.105 27.2223 108.494 27.2223H102.415V30.6509H107.786C108.379 30.6509 108.856 31.1093 108.856 31.7671C108.856 32.4248 108.379 32.8832 107.786 32.8832H102.415V36.8299H108.494C109.105 36.8299 109.602 37.3277 109.602 38.0058C109.602 38.6839 109.105 39.1614 108.494 39.1614H101.555C100.562 39.1626 100.008 38.5848 100.045 37.5283Z" fill="white"/>
<path fill-rule="evenodd" clip-rule="evenodd" d="M122.62 39.2223C123.288 38.8629 123.499 38.1252 123.174 37.5474L120.784 33.1232C122.753 32.7245 123.901 31.2096 123.901 29.1563C123.901 27.0039 122.601 24.8909 119.485 24.8909H114.956C113.943 24.8515 113.389 25.4293 113.389 26.4655V37.9474C113.389 38.6242 113.885 39.1829 114.573 39.1829C115.281 39.1829 115.777 38.6255 115.777 37.9474L115.758 33.602H118.281L120.938 38.7245C121.262 39.3023 121.969 39.5614 122.62 39.2223ZM119.541 31.348H115.757V27.2211H119.522C120.783 27.2211 121.491 28.0579 121.491 29.2744C121.491 30.4909 120.822 31.348 119.541 31.348Z" fill="white"/>
<path fill-rule="evenodd" clip-rule="evenodd" d="M128.831 38.1061C127.398 36.7702 126.748 34.6775 126.748 32.0464C126.748 29.395 127.378 27.3226 128.793 26.007C129.672 25.2096 130.857 24.6712 132.578 24.6712C134.088 24.6712 135.254 25.0305 136.133 25.8077C136.898 26.4451 137.452 27.3429 137.777 28.5988C137.949 29.2566 137.509 29.9143 136.783 30.054C136.095 30.1734 135.542 29.715 135.331 29.0572C135.102 28.4198 134.795 27.9613 134.432 27.6413C133.935 27.1829 133.324 26.9835 132.52 26.9835C131.661 26.9835 130.914 27.2426 130.36 27.8203C129.558 28.6572 129.213 30.1531 129.213 32.0464C129.213 33.9207 129.538 35.4153 130.38 36.2521C130.934 36.8299 131.661 37.0889 132.501 37.0889C133.38 37.0889 134.049 36.8502 134.604 36.3118C134.89 36.0325 135.14 35.6743 135.311 35.2553C135.56 34.6369 136.076 34.1785 136.744 34.3385C137.413 34.4985 137.834 35.1753 137.624 35.8331C137.279 36.9289 136.687 37.8064 135.885 38.4045C135.006 39.0623 133.916 39.4013 132.54 39.4013C130.782 39.4013 129.672 38.8629 128.831 38.1061Z" fill="white"/>
<path fill-rule="evenodd" clip-rule="evenodd" d="M146.379 24.6712C142.23 24.6712 140.472 27.5816 140.472 32.0464C140.472 36.6509 142.212 39.4216 146.379 39.4216C150.469 39.4216 152.266 36.6509 152.266 32.0464C152.266 27.5016 150.488 24.6712 146.379 24.6712ZM146.359 27.0039C148.634 27.0039 149.819 28.6572 149.819 32.0464C149.819 35.4343 148.614 37.0889 146.359 37.0889C144.085 37.0889 142.938 35.4356 142.938 32.0464C142.938 28.6585 144.123 27.0039 146.359 27.0039Z" fill="white"/>
<path fill-rule="evenodd" clip-rule="evenodd" d="M170.806 37.9271C170.806 38.6052 170.309 39.1626 169.602 39.1626C168.914 39.1626 168.417 38.6039 168.417 37.9271V32.5849L168.475 27.3823L166.811 32.6649L165.13 37.8674C164.844 38.7842 164.251 39.1436 163.505 39.1436C162.721 39.1436 162.148 38.7652 161.842 37.8483L160.122 32.6662L158.535 27.4636L158.592 32.5862V37.9283C158.592 38.6065 158.095 39.1639 157.388 39.1639C156.7 39.1639 156.203 38.6052 156.203 37.9283V27.2642C156.203 25.7887 156.967 24.9315 158.306 24.9315C159.567 24.9315 160.275 25.6287 160.675 26.9049L162.434 32.3462L163.504 36.0541L164.594 32.3462L166.352 26.9049C166.754 25.6287 167.442 24.9315 168.703 24.9315C170.042 24.9315 170.787 25.7683 170.787 27.2642L170.806 37.9271Z" fill="white"/>
<path d="M46.1569 34.083C46.1569 34.4396 46.0203 34.7815 45.7772 35.0337C45.534 35.2858 45.2043 35.4275 44.8604 35.4275C44.5166 35.4275 44.1868 35.2858 43.9437 35.0337C43.7005 34.7815 43.564 34.4396 43.564 34.083V22.072C43.564 21.7154 43.7005 21.3734 43.9437 21.1213C44.1868 20.8691 44.5166 20.7275 44.8604 20.7275C45.2043 20.7275 45.534 20.8691 45.7772 21.1213C46.0203 21.3734 46.1569 21.7154 46.1569 22.072V34.083ZM45.7069 42.4052C45.5354 42.583 40.7139 46.7497 31.8745 46.7497C23.035 46.7497 18.2457 42.6052 18.0421 42.4275C17.9138 42.3153 17.8081 42.178 17.7311 42.0234C17.6541 41.8687 17.6073 41.6998 17.5933 41.5265C17.5794 41.353 17.5986 41.1785 17.6499 41.0128C17.7011 40.847 17.7834 40.6934 17.8921 40.5608C18.1159 40.2923 18.4329 40.1265 18.7741 40.0994C19.1153 40.0723 19.453 40.1863 19.7135 40.4164C19.7885 40.4719 24.0957 44.0941 31.8637 44.0941C39.6317 44.0941 43.9711 40.4497 44.014 40.4164C44.2774 40.1884 44.6162 40.0759 44.9584 40.1029C45.3005 40.1298 45.619 40.2941 45.8461 40.5608C46.0648 40.8253 46.1739 41.1685 46.1498 41.516C46.1257 41.8635 45.9704 42.187 45.7176 42.4164L45.7069 42.4052ZM17.5813 22.072C17.6007 21.7142 17.7559 21.379 18.0129 21.1396C18.2698 20.9002 18.6078 20.776 18.9528 20.7941C19.2726 20.813 19.5745 20.954 19.8 21.1899C20.0256 21.4259 20.1589 21.7401 20.1742 22.072V34.0608C20.1742 34.4174 20.0377 34.7594 19.7945 35.0115C19.5514 35.2636 19.2217 35.4052 18.8778 35.4052C18.534 35.4052 18.2042 35.2636 17.9611 35.0115C17.7179 34.7594 17.5813 34.4174 17.5813 34.0608V22.072ZM24.085 19.4053C24.1044 19.0476 24.2595 18.7124 24.5165 18.4729C24.7735 18.2335 25.1115 18.1093 25.4565 18.1275C25.7763 18.1463 26.0781 18.2873 26.3037 18.5233C26.5292 18.7592 26.6626 19.0734 26.6779 19.4053V37.183C26.6779 37.5396 26.5413 37.8815 26.2983 38.1337C26.0551 38.3858 25.7253 38.5275 25.3815 38.5275C25.0377 38.5275 24.7079 38.3858 24.4648 38.1337C24.2216 37.8815 24.085 37.5396 24.085 37.183V19.4053ZM30.6209 18.7386C30.6209 18.382 30.7575 18.0401 31.0006 17.788C31.2437 17.5358 31.5735 17.3941 31.9173 17.3941C32.2612 17.3941 32.5909 17.5358 32.834 17.788C33.0772 18.0401 33.2138 18.382 33.2138 18.7386V38.0719C33.2138 38.4285 33.0772 38.7705 32.834 39.0226C32.5909 39.2747 32.2612 39.4164 31.9173 39.4164C31.5735 39.4164 31.2437 39.2747 31.0006 39.0226C30.7575 38.7705 30.6209 38.4285 30.6209 38.0719V18.7386ZM37.0496 19.4053C37.0496 19.0487 37.1861 18.7067 37.4293 18.4546C37.6724 18.2025 38.0022 18.0608 38.346 18.0608C38.6899 18.0608 39.0196 18.2025 39.2627 18.4546C39.5059 18.7067 39.6425 19.0487 39.6425 19.4053V37.183C39.6425 37.5396 39.5059 37.8815 39.2627 38.1337C39.0196 38.3858 38.6899 38.5275 38.346 38.5275C38.0022 38.5275 37.6724 38.3858 37.4293 38.1337C37.1861 37.8815 37.0496 37.5396 37.0496 37.183V19.4053ZM46.5105 12.072H17.2813C16.6444 12.0675 16.013 12.1934 15.4231 12.4425C14.8332 12.6915 14.2965 13.0588 13.8436 13.5232C13.3908 13.9877 13.0307 14.5402 12.7841 15.1491C12.5374 15.758 12.4091 16.4115 12.4062 17.072V47.0719C12.4091 47.7324 12.5374 48.3858 12.7841 48.9947C13.0307 49.6037 13.3908 50.1562 13.8436 50.6206C14.2965 51.0851 14.8332 51.4523 15.4231 51.7013C16.013 51.9504 16.6444 52.0762 17.2813 52.0719H46.5105C47.1465 52.0762 47.777 51.9508 48.3663 51.7024C48.9554 51.4541 49.4917 51.0878 49.9444 50.6245C50.3971 50.1613 50.7573 49.6101 51.0047 49.0025C51.2519 48.3948 51.3813 47.7426 51.3856 47.083V17.072C51.3827 16.4124 51.2547 15.7599 51.0087 15.1517C50.7627 14.5435 50.4036 13.9915 49.952 13.5272C49.5002 13.0629 48.9648 12.6954 48.3761 12.4457C47.7875 12.196 47.1572 12.069 46.5212 12.072" fill="white"/>
</svg>
