<svg width="211" height="57" viewBox="0 0 211 57" fill="none" xmlns="http://www.w3.org/2000/svg">
<path d="M34.2841 24.8903C34.1625 24.8903 34.0601 24.8934 34.0026 24.8998C33.9354 25.0215 33.8362 25.1846 33.689 25.4118C35.9799 25.4118 38.0596 25.6006 40.3601 26.0133L39.7106 26.6404C37.634 26.2725 35.9095 26.1254 33.7114 26.1254C33.3915 26.1254 33.3243 26.1254 33.2475 26.1285C33.1707 26.2437 32.9979 26.4676 32.8251 26.6757C33.0203 26.6629 33.3979 26.6565 33.9193 26.6565C35.7271 26.6565 37.4165 26.7908 39.2499 27.0852L38.6003 27.7155C37.2053 27.4979 35.4999 27.3732 33.9705 27.3732C33.4266 27.3732 32.8091 27.3923 32.2556 27.4243C32.1308 27.5683 31.8045 27.9203 31.7053 28.029C32.4379 27.9523 33.2443 27.9171 34.2041 27.9171C35.5704 27.9171 36.8758 28.0067 38.1108 28.189L37.4613 28.8129C36.5814 28.7042 35.5127 28.6402 34.5689 28.6402C32.134 28.6402 30.2142 29.1681 28.2305 30.3807C30.1214 32.4093 33.2187 33.6923 36.2199 33.6923H36.5014L35.452 34.7067C31.1229 33.8939 26.5667 31.9902 22.7177 29.3824C19.0157 26.8836 17.7199 26.1445 14.8307 24.8679L14.8115 24.1256L16.7665 24.9639L17.432 24.4359L23.8151 27.3604L23.3991 27.6931L20.1228 26.2693L19.7996 26.522L21.5019 27.4723C22.9385 28.2723 24.0327 28.6306 25.0438 28.6306C27.2547 28.6306 29.2384 27.0628 30.5182 24.308C31.4813 24.1831 32.5084 24.1256 33.7434 24.1256C36.2774 24.1256 38.7379 24.3687 41.5247 24.8903L40.8464 25.5462C39.1123 25.1846 36.1654 24.8903 34.2841 24.8903ZM28.0801 43.1118C19.7762 43.1118 13.0402 36.3758 13.0402 28.0719C13.0402 19.7679 19.7762 13.0318 28.0801 13.0318C36.3841 13.0318 43.1201 19.7679 43.1201 28.0719C43.1201 36.3758 36.3841 43.1118 28.0801 43.1118ZM28.0801 12.0719C19.2322 12.0719 12.0801 19.2239 12.0801 28.0719C12.0801 36.9199 19.2322 44.0719 28.0801 44.0719C36.9281 44.0719 44.0802 36.9199 44.0802 28.0719C44.0802 19.2239 36.9281 12.0719 28.0801 12.0719ZM70.3505 34.4414H79.5239V38.7386H65.4134V17.4051H70.3505V34.4414ZM90.6172 23.3785H95.219V38.7386H90.8915V36.971C90.2515 38.1595 88.9411 39.1956 86.5334 39.1956C82.6021 39.1956 80.5602 37.428 80.5602 32.369V23.3785H85.1621V32.1556C85.1621 34.1976 86.046 35.1118 87.905 35.1118C89.5811 35.1118 90.6172 34.1976 90.6172 32.1556V23.3785ZM98.7544 22.7996C98.7544 19.0815 101.101 17.1004 104.789 17.1004C105.977 17.1004 106.739 17.2833 106.739 17.2833V21.0013C106.739 21.0013 106.099 20.9406 105.551 20.9406C104.118 20.9406 103.356 21.4282 103.356 22.7691V23.3785H106.739V27.1271H103.356V38.7386H98.7544V27.1271H96.4383V23.3785H98.7544V22.7996ZM114.845 23.3785H118.35V27.1271H114.845V33.1005C114.845 34.7462 115.699 35.1729 117.04 35.1729C117.589 35.1729 118.35 35.0815 118.35 35.0815V38.7691C118.35 38.7691 117.284 39.0127 116.156 39.0127C112.469 39.0127 110.244 37.3366 110.244 33.6187V27.1271H107.928V23.3785H110.244V18.8986H114.845V23.3785ZM128.539 22.9214C132.44 22.9214 134.482 24.689 134.482 29.748V38.7386H129.88V29.9613C129.88 27.9195 128.996 27.0054 127.076 27.0054C125.339 27.0054 124.303 27.9195 124.303 29.9613V38.7386H119.701V17.4357H124.333V24.8718C125.126 23.7442 126.375 22.9214 128.539 22.9214ZM146.215 32.7652C146.215 34.4414 144.63 35.691 142.192 35.691C141.004 35.691 140.303 35.1425 140.303 34.1061C140.303 33.3138 140.79 32.6434 142.345 32.4302L144.996 32.0643C145.453 32.0033 145.941 31.912 146.215 31.8205V32.7652ZM143.655 22.9215C139.114 22.9215 136.92 24.6587 136.738 27.9196H141.217C141.278 27.0662 141.766 26.4262 143.655 26.4262C145.331 26.4262 146.124 26.9749 146.124 27.7975C146.124 28.5292 145.666 28.8034 144.539 28.9252L141.614 29.23C137.651 29.6565 135.853 31.3024 135.853 34.2892C135.853 37.0624 137.56 39.1956 141.187 39.1956C143.655 39.1956 145.118 38.4033 146.398 36.8184V38.7386H150.604V28.651C150.604 24.4148 148.136 22.9215 143.655 22.9215ZM161.245 22.9214C165.237 22.9214 167.279 24.689 167.279 29.748V38.7386H162.677V29.9613C162.677 27.9195 161.794 27.0054 159.874 27.0054C158.136 27.0054 157.1 27.9195 157.1 29.9613V38.7386H152.498V23.3786H156.826V25.1463C157.466 23.9576 158.776 22.9214 161.245 22.9214ZM176.987 29.108C180.888 29.6263 182.838 30.8452 182.838 34.0453C182.838 37.2758 180.553 39.1957 175.707 39.1957C170.435 39.1957 168.575 37.093 168.484 34.0146H173.025C173.147 35.1425 173.939 35.691 175.707 35.691C177.505 35.691 178.236 35.2642 178.236 34.411C178.236 33.6187 177.627 33.253 176.042 33.0396L174.427 32.8261C171.044 32.3691 169.094 31.0587 169.094 28.011C169.094 25.0853 171.257 22.9214 175.799 22.9214C180.004 22.9214 182.26 24.5976 182.473 27.9195H177.992C177.84 27.0359 177.353 26.4872 175.799 26.4872C174.275 26.4872 173.696 27.0054 173.696 27.6759C173.696 28.3462 174.062 28.7119 175.372 28.8949L176.987 29.108ZM194.358 32.7655C194.358 34.4415 192.773 35.691 190.336 35.691C189.147 35.691 188.446 35.1425 188.446 34.1061C188.446 33.3138 188.934 32.6434 190.488 32.4302L193.139 32.0643C193.597 32.0036 194.084 31.912 194.358 31.8205V32.7655ZM191.798 22.9215C187.258 22.9215 185.063 24.6587 184.88 27.9196H189.36C189.421 27.0662 189.909 26.4264 191.798 26.4264C193.475 26.4264 194.267 26.9749 194.267 27.7978C194.267 28.5292 193.81 28.8034 192.682 28.9252L189.756 29.23C185.794 29.6567 183.997 31.3024 183.997 34.2892C183.997 37.0624 185.703 39.1956 189.329 39.1956C191.798 39.1956 193.261 38.4033 194.541 36.8184V38.7386H198.747V28.651C198.747 24.415 196.278 22.9215 191.798 22.9215Z" fill="white"/>
</svg>
