<svg width="224" height="73" viewBox="0 0 224 73" fill="none" xmlns="http://www.w3.org/2000/svg">
<path d="M187.34 12C174.04 12 163.252 22.7802 163.252 36.0757C163.252 49.3658 174.04 60.1438 187.34 60.1438C200.648 60.1438 211.431 49.3658 211.431 36.0757C211.43 22.7802 200.648 12 187.34 12ZM187.34 59.5886C174.347 59.5886 163.81 49.0587 163.81 36.0725C163.81 23.083 174.347 12.5563 187.34 12.5563C200.336 12.5563 210.875 23.083 210.875 36.0725C210.875 49.0587 200.336 59.5886 187.34 59.5886ZM186.042 15.5103C186.042 15.2589 186.173 15.1102 186.382 15.1102C186.712 15.0963 187.009 15.0888 187.339 15.0888C198.936 15.0888 208.339 24.4759 208.339 36.0714C208.339 47.6604 198.936 57.0551 187.339 57.0551C175.747 57.0551 166.344 47.6604 166.344 36.0714C166.344 27.0298 172.056 19.3362 180.069 16.379C180.264 16.3031 180.442 16.4058 180.521 16.6315C180.607 16.8551 180.542 17.0488 180.341 17.1248C172.636 19.9707 167.141 27.3775 167.141 36.0703C167.141 47.2207 176.185 56.258 187.339 56.258C198.497 56.258 207.541 47.2207 207.541 36.0703C207.541 24.9114 198.497 15.8762 187.339 15.8762C187.019 15.8762 186.695 15.8837 186.375 15.8965C186.165 15.8976 186.042 15.7478 186.042 15.5103ZM186.749 48.8736C186.916 48.8801 187.172 48.8822 187.34 48.8822C194.421 48.8822 200.158 43.1487 200.158 36.0746C200.158 28.9994 194.42 23.2648 187.34 23.2648C187.176 23.2648 186.915 23.267 186.749 23.2734C186.303 23.2734 186.042 22.9439 186.042 22.4346C186.042 21.9221 186.303 21.5947 186.749 21.5947C186.935 21.5883 187.154 21.5851 187.34 21.5851C195.349 21.5851 201.842 28.0697 201.842 36.0746C201.842 44.0763 195.35 50.5619 187.34 50.5619C187.152 50.5619 186.935 50.5555 186.749 50.5491C186.303 50.5491 186.042 50.2164 186.042 49.7114C186.042 49.1989 186.303 48.8736 186.749 48.8736ZM187.34 52.66C196.509 52.66 203.939 45.2339 203.939 36.0746C203.939 26.9089 196.509 19.4817 187.34 19.4817C187.108 19.4817 186.823 19.4881 186.587 19.4956C186.247 19.4956 186.042 19.2463 186.042 18.8494C186.042 18.4503 186.246 18.2021 186.587 18.2021C186.841 18.1936 187.089 18.1893 187.34 18.1893C197.227 18.1893 205.24 26.192 205.24 36.0757C205.24 45.9507 197.227 53.9588 187.34 53.9588C187.09 53.9588 186.837 53.9524 186.587 53.9417C186.245 53.9417 186.042 53.6956 186.042 53.2944C186.042 52.8975 186.244 52.6482 186.587 52.6482C186.819 52.6536 187.108 52.66 187.34 52.66ZM180.273 51.0862C180.582 51.2327 180.63 51.5526 180.465 51.9057C180.296 52.2609 180.03 52.4053 179.721 52.2588C173.646 49.4022 169.446 43.2193 169.446 36.0746C169.446 28.9235 173.639 22.7609 179.699 19.8958C180.009 19.7556 180.304 19.8947 180.469 20.2445C180.638 20.6094 180.561 20.9261 180.251 21.0684C174.628 23.7206 170.748 29.4424 170.741 36.0746C170.738 42.6983 174.638 48.4264 180.273 51.0862ZM180.246 46.7414C180.616 46.9896 180.656 47.4079 180.371 47.8337C180.091 48.2574 179.685 48.3858 179.315 48.1365C175.263 45.4425 172.843 40.9297 172.843 36.0735C172.843 31.2152 175.263 26.6981 179.315 24.0063C179.683 23.7548 180.091 23.8897 180.373 24.3133C180.656 24.737 180.616 25.1585 180.246 25.4014C176.664 27.7851 174.522 31.7736 174.522 36.0735C174.522 40.3659 176.664 44.3598 180.246 46.7414ZM178.767 42.4522C177.423 40.6462 176.651 38.4422 176.651 36.0767C176.651 33.7722 177.385 31.5543 178.765 29.6949C179.089 29.2722 179.602 29.2562 180.089 29.6317C180.577 29.9955 180.7 30.493 180.38 30.9188C179.265 32.4166 178.675 34.1991 178.675 36.0757C178.675 37.9501 179.269 39.7304 180.384 41.2282C180.702 41.6519 180.579 42.1473 180.091 42.5153C179.604 42.8887 179.089 42.878 178.767 42.4522Z" fill="white"/>
<path d="M183.526 28.4099C182.626 28.6624 182.043 28.0044 182.043 27.2951V16.3662C182.043 15.6932 182.539 15.3038 183.301 15.3038C184.064 15.3038 184.554 15.6922 184.554 16.3662V25.5009C185.445 25.2687 186.379 25.1403 187.341 25.1403C193.393 25.1403 198.296 30.0458 198.296 36.0938C198.296 42.1387 193.393 47.0377 187.341 47.0377L187.107 47.0292C186.439 47.0292 186.04 46.5338 186.04 45.7667C186.04 45.006 186.439 44.5106 187.107 44.5106C187.182 44.5106 187.262 44.5149 187.341 44.5149C191.927 44.5149 195.758 40.8099 195.758 36.0746C195.758 31.2794 191.841 27.6214 187.404 27.6214C185.261 27.6214 184.431 28.1521 183.526 28.4099ZM192.064 31.3521C190.806 30.0918 189.128 29.4049 187.345 29.4049C184.93 29.4049 182.198 30.6396 182.053 31.7811C182.03 31.9587 182.044 32.9762 182.044 32.9762V52.4406C182.044 53.197 182.535 53.5544 183.3 53.5544C184.017 53.5544 184.555 53.2184 184.555 52.4406V32.8435C185.296 32.177 186.274 31.9031 187.342 31.9031C189.643 31.9031 191.512 33.7754 191.512 36.0735C191.512 38.3684 189.642 40.2386 187.342 40.2386C187.311 40.2386 187.127 40.2429 187.097 40.2429C186.436 40.2429 186.041 40.7297 186.041 41.4925C186.041 42.2446 186.436 42.7378 187.097 42.7378C187.143 42.7378 187.294 42.7485 187.342 42.7485C189.128 42.7485 190.806 42.0531 192.064 40.7885C193.325 39.526 194.022 37.8527 194.022 36.0746C194.021 34.2943 193.324 32.6135 192.064 31.3521Z" fill="white"/>
<path d="M146.715 42.0841C147.554 42.6844 148.989 43.0535 150.481 43.0535C153.592 43.0535 155.451 41.4593 155.451 38.8681C155.451 36.8331 154.377 35.7879 151.475 34.8207C149.54 34.1937 148.729 33.5925 148.729 32.652C148.729 31.4505 149.752 30.8482 151.238 30.8482C152.575 30.8482 153.854 31.1884 155.006 31.8935V30.0896C154.246 29.5151 152.652 29.0968 151.293 29.0968C148.416 29.0968 146.663 30.4299 146.663 32.7034C146.663 34.4548 147.684 35.683 150.141 36.4918C152.493 37.2504 153.383 37.7479 153.383 39.0264C153.383 40.4098 152.286 41.2753 150.481 41.2753C149.04 41.2753 147.527 40.857 146.715 40.2557V42.0841ZM134.959 34.8207C135.195 32.3888 136.499 30.8739 138.828 30.8739C141.209 30.8739 142.41 32.1802 142.489 34.8207H134.959ZM144.24 40.3327C143.195 40.857 141.52 41.2229 139.9 41.2229C136.657 41.2229 135.011 39.6833 134.88 36.571H144.502C144.529 36.2051 144.581 35.4744 144.581 35.1855C144.581 31.4217 142.672 29.0968 138.986 29.0968C134.854 29.0968 132.761 32.1288 132.761 36.1013C132.761 40.5692 135.116 43.0535 139.639 43.0535C141.443 43.0535 143.17 42.7378 144.24 42.113V40.3327ZM127.921 42.7378L131.764 29.4103H129.698L126.928 39.8898L123.842 29.4103H121.539L118.48 40.0193L115.735 29.4103H113.487L117.328 42.7378H119.5L122.69 32.1513L125.749 42.7378H127.921ZM106.243 41.2229C103.576 41.2229 102.084 39.1858 102.084 36.1013C102.084 32.9644 103.577 30.9252 106.243 30.9252C108.909 30.9252 110.4 32.9644 110.4 36.0468C110.4 39.1858 108.884 41.2229 106.243 41.2229ZM106.243 43.0535C110.478 43.0535 112.597 39.9668 112.597 36.0746C112.597 32.1524 110.767 29.0979 106.243 29.0979C102.007 29.0979 99.888 32.1802 99.888 36.0746C99.8869 39.9947 101.72 43.0535 106.243 43.0535ZM88.0208 31.6335C88.9623 31.136 89.9295 30.9252 91.1834 30.9252C94.0603 30.9252 95.7079 32.8328 95.7079 35.6563C95.7079 39.2382 93.7468 41.2229 90.3221 41.2229C89.3806 41.2229 88.7269 41.118 88.0208 40.857V31.6335ZM85.9281 42.3452C87.2087 42.7635 88.5964 43.0535 90.1381 43.0535C94.9751 43.0535 97.9033 40.3616 97.9033 35.6306C97.9033 31.5522 95.3934 29.0968 91.392 29.0968C90.2162 29.0968 89.1174 29.3054 88.0197 29.7783V23.1129H85.927V42.3452H85.9281ZM72.8883 49.506L75.4261 42.7378L80.7327 29.4103H78.4325L74.3808 40.3081L70.404 29.4103H68.0257L73.3334 42.7378L70.7699 49.506H72.8883ZM57.2476 34.8207C57.4819 32.3888 58.7904 30.8739 61.1185 30.8739C63.4979 30.8739 64.7015 32.1802 64.7796 34.8207H57.2476ZM66.531 40.3327C65.4847 40.857 63.8114 41.2229 62.1905 41.2229C58.9477 41.2229 57.3001 39.6833 57.1706 36.571H66.7932C66.8178 36.2051 66.8713 35.4744 66.8713 35.1855C66.8713 31.4217 64.9626 29.0968 61.2758 29.0968C57.1439 29.0968 55.0522 32.1288 55.0522 36.1013C55.0522 40.5692 57.406 43.0535 61.9295 43.0535C63.7354 43.0535 65.4601 42.7378 66.5321 42.113V40.3327H66.531ZM52.8023 42.7378V34.0097C52.8023 30.248 50.5266 29.0968 47.6251 29.0968C45.664 29.0968 43.3359 29.5943 41.6369 30.2212V42.7378H43.7296V31.5811C44.593 31.2408 45.9518 30.9798 47.1286 30.9798C49.5594 30.9798 50.7096 31.8154 50.7096 34.7415V42.7389H52.8023V42.7378ZM39.6245 40.9094C38.9183 41.118 38.1855 41.2475 37.2696 41.2475C36.3281 41.2475 35.622 40.9864 35.622 39.2629V31.1617H39.1259V29.4103H35.622V26.1182H33.5571V29.4103H31.3339V31.1617H33.5571V39.6555C33.5571 42.0585 34.811 43.0535 36.7732 43.0535C37.8698 43.0535 38.8124 42.8973 39.6245 42.5838V40.9094ZM28.0237 26.9025C28.7822 26.9025 29.3835 26.3012 29.3835 25.5437C29.3835 24.7851 28.7822 24.1582 28.0237 24.1582C27.2395 24.1582 26.6382 24.7851 26.6382 25.5437C26.6382 26.3012 27.2395 26.9025 28.0237 26.9025ZM29.0433 29.4103H26.9527V42.7378H29.0433V29.4103ZM14.5239 31.7629C15.4119 31.1884 16.4325 30.9252 17.6886 30.9252C20.5644 30.9252 22.2121 32.8328 22.2121 35.6563C22.2121 39.2382 20.251 41.2229 16.7995 41.2229C15.858 41.2229 15.2043 41.118 14.5249 40.857V31.7629H14.5239ZM14.5239 49.506V42.7625C15.2032 42.9465 15.9361 43.0524 16.6936 43.0524C21.4535 43.0524 24.4064 40.3606 24.4064 35.6295C24.4064 31.58 21.8708 29.0957 17.8972 29.0957C16.0142 29.0957 14.0542 29.6703 12.4312 31.029V49.506H14.5239Z" fill="white"/>
</svg>
