<svg width="160" height="59" viewBox="0 0 160 59" fill="none" xmlns="http://www.w3.org/2000/svg">
<path fill-rule="evenodd" clip-rule="evenodd" d="M18.1444 12.0435H40.7819C42.2889 12.043 43.7345 12.6414 44.8002 13.7069C45.866 14.7724 46.4648 16.2177 46.4648 17.7247V40.3605C46.4648 43.4992 43.9204 46.0435 40.7819 46.0435H18.1444C15.0064 46.0425 12.4631 43.4986 12.4631 40.3605V17.7247C12.4631 14.587 15.0067 12.0435 18.1444 12.0435ZM38.4938 39.8624C39.4842 39.8624 40.287 39.0595 40.287 38.0692L40.2821 20.0193C40.2821 19.029 39.4792 18.2262 38.4889 18.2262H20.4406C19.9648 18.2262 19.5084 18.4153 19.1721 18.752C18.8358 19.0886 18.6471 19.5451 18.6475 20.0209V38.0692C18.6475 39.0595 19.4503 39.8624 20.4406 39.8624H38.4938Z" fill="white"/>
<path d="M25.8563 33.6533C25.291 33.6489 24.8352 33.1894 24.8352 32.6241V25.4186C24.8339 25.1447 24.9418 24.8816 25.135 24.6875C25.3281 24.4934 25.5907 24.3843 25.8646 24.3843H33.08C33.3537 24.3847 33.616 24.494 33.8091 24.688C34.0022 24.882 34.1102 25.1449 34.1093 25.4186V32.6224C34.1102 32.8961 34.0022 33.1589 33.8091 33.3529C33.616 33.547 33.3537 33.6563 33.08 33.6567L25.8563 33.6533Z" fill="white"/>
<path d="M63.7659 27.5285C62.7135 27.2415 61.7171 26.971 60.9435 26.6262C59.5116 25.9862 58.8452 25.0987 58.8452 23.8351C58.8452 21.4465 61.1546 20.3709 63.4542 20.3709C65.6398 20.3709 67.5484 21.2749 68.8302 22.9146L68.9176 23.0268L70.7652 21.5817L70.6761 21.4695C68.9721 19.302 66.4482 18.1143 63.5663 18.1143C61.6479 18.1143 59.8893 18.6322 58.6176 19.5742C57.1857 20.6217 56.4301 22.1409 56.4301 23.9539C56.4301 28.1687 60.399 29.1962 63.5895 30.0227C66.8178 30.874 68.7956 31.5206 68.7956 33.9817C68.7956 36.405 66.8358 37.9706 63.8038 37.9706C62.3044 37.9706 59.5282 37.5731 57.7829 34.9073L57.702 34.7818L55.7588 36.189L55.8347 36.3029C57.4843 38.8003 60.3315 40.2339 63.6554 40.2339C68.1703 40.2339 71.2056 37.6851 71.2056 33.8944C71.2056 29.5559 67.0783 28.4325 63.7659 27.5285Z" fill="white"/>
<path fill-rule="evenodd" clip-rule="evenodd" d="M85.9331 26.6525V24.3711H88.1055V46.0404H85.9331V37.5745C84.6926 39.2753 82.8318 40.2057 80.6444 40.2057C76.5139 40.2057 73.627 36.8983 73.627 32.1226C73.627 27.347 76.5204 24.0132 80.6444 24.0132C82.817 24.0132 84.6777 24.9485 85.9331 26.6525ZM75.9167 32.0962C75.9167 36.5171 78.4488 38.0926 80.8192 38.0926L80.8241 38.0941C83.9271 38.0941 85.9331 35.7188 85.9331 32.0962C85.9331 28.4737 83.9238 26.1313 80.8192 26.1313C77.205 26.1313 75.9167 29.2127 75.9167 32.0962Z" fill="white"/>
<path d="M102.469 24.3711V32.9242C102.469 35.9184 100.419 38.0925 97.5943 38.0925C95.2486 38.0925 94.1072 36.7002 94.1072 33.8382V24.3711H91.9346V34.2819C91.9346 37.9935 93.952 40.2089 97.3304 40.2089C99.4353 40.2089 101.243 39.3165 102.471 37.685V39.8559H104.643V24.3711H102.469Z" fill="white"/>
<path fill-rule="evenodd" clip-rule="evenodd" d="M108.734 25.9976C110.336 24.7389 112.51 24.0181 114.696 24.0181C118.149 24.0181 120.209 25.7353 120.202 28.6155V39.8593H118.028V38.142C116.931 39.516 115.344 40.2123 113.302 40.2123C109.975 40.2123 107.906 38.3927 107.906 35.4663C107.906 31.6607 111.492 31.0635 113.02 30.8094C113.269 30.7683 113.526 30.7287 113.783 30.689H113.784L113.793 30.6876C115.88 30.3663 118.035 30.0348 118.035 28.2642C118.035 26.2599 115.433 26.1048 114.636 26.1048C113.229 26.1048 111.242 26.5222 109.891 27.6933L109.767 27.8006L108.632 26.0784L108.734 25.9976ZM110.174 35.3442C110.174 37.8253 112.51 38.0941 113.515 38.0941H113.516C115.701 38.0941 118.038 36.9296 118.033 33.6568V31.4165C116.973 32.0858 115.465 32.3473 114.12 32.5805L114.097 32.5845L113.422 32.7049C111.268 33.1041 110.174 33.6187 110.174 35.3442Z" fill="white"/>
<path d="M132.789 24.6629C132.272 24.2951 131.459 24.0757 130.611 24.0757C128.869 24.0986 127.239 24.9385 126.208 26.3439V24.3644H124.036V39.8476H126.208V31.5666C126.208 27.8946 128.272 26.2499 130.316 26.2499C130.914 26.2419 131.506 26.3675 132.05 26.6177L132.197 26.6953L132.884 24.7256L132.789 24.6629Z" fill="white"/>
<path fill-rule="evenodd" clip-rule="evenodd" d="M133.425 32.1555C133.425 27.3651 136.413 24.0181 140.684 24.0181C144.798 24.0181 147.673 26.989 147.665 31.2499C147.663 31.6203 147.643 31.9903 147.604 32.3584L147.59 32.4855H135.713C135.768 35.8952 137.82 38.0941 140.969 38.0941C142.774 38.0941 144.337 37.3601 145.372 36.0255L145.466 35.9035L147.039 37.3056L146.952 37.4111C145.906 38.6863 143.999 40.2073 140.848 40.2073C136.411 40.2073 133.425 36.9724 133.425 32.1555ZM140.624 26.1032C137.97 26.1032 136.088 27.85 135.794 30.5703H145.368C145.18 28.3829 143.844 26.1032 140.624 26.1032Z" fill="white"/>
</svg>
