<?xml version="1.0" encoding="UTF-8" standalone="no"?> <!-- Created with Vectornator for iOS (http://vectornator.io/) --><!DOCTYPE svg PUBLIC "-//W3C//DTD SVG 1.1//EN" "http://www.w3.org/Graphics/SVG/1.1/DTD/svg11.dtd">
<svg height="100%" style="fill-rule:nonzero;clip-rule:evenodd;stroke-linecap:round;stroke-linejoin:round;" xmlns:xlink="http://www.w3.org/1999/xlink" xmlns="http://www.w3.org/2000/svg" xml:space="preserve" width="100%" xmlns:vectornator="http://vectornator.io" version="1.1" viewBox="0 0 682.452 540">
<metadata>
<vectornator:setting key="DimensionsVisible" value="1"/>
<vectornator:setting key="PencilOnly" value="0"/>
<vectornator:setting key="SnapToPoints" value="0"/>
<vectornator:setting key="GuidesVisible" value="1"/>
<vectornator:setting key="OutlineMode" value="0"/>
<vectornator:setting key="CMYKEnabledKey" value="0"/>
<vectornator:setting key="SnapToEdges" value="0"/>
<vectornator:setting key="RulersVisible" value="1"/>
<vectornator:setting key="DisplayWhiteBackground" value="0"/>
<vectornator:setting key="doHistoryDisabled" value="0"/>
<vectornator:setting key="TimeLapseWatermarkDisabled" value="0"/>
<vectornator:setting key="SnapToGuides" value="1"/>
<vectornator:setting key="DynamicGuides" value="0"/>
<vectornator:setting key="SnapToGrid" value="0"/>
<vectornator:setting key="IsolateActiveLayer" value="0"/>
<vectornator:setting key="Units" value="Points"/>
</metadata>
<defs/>
<g id="Untitled" vectornator:layerName="Untitled" opacity="0.85">
<path d="M24.25+110.858L328.66+29.2838L434.203+423.142L129.793+504.717L24.25+110.858Z" fill-rule="evenodd" fill="#ffffff" opacity="1"/>
<path d="M24.25+108.858L328.66+27.2838L434.203+421.142L129.793+502.717L24.25+108.858Z" fill-rule="evenodd" fill="#ffffff" opacity="1"/>
<path d="M112.931+305.214L112.931+305.214C112.157+302.325+113.872+299.355+116.761+298.581L204.254+275.136C205.641+274.764+207.119+274.958+208.363+275.677C209.607+276.395+210.515+277.578+210.887+278.965L228.646+345.245C229.421+348.135+227.706+351.105+224.817+351.879L137.324+375.324C134.435+376.098+131.465+374.384+130.691+371.494L112.931+305.214Z" fill-rule="evenodd" fill="#efefef" opacity="1"/>
<path d="M124.163+318.112L124.163+318.112C124.021+317.58+124.337+317.033+124.869+316.89L146.427+311.113C146.682+311.045+146.955+311.081+147.184+311.213C147.413+311.345+147.581+311.563+147.649+311.819L150.921+324.031C151.064+324.564+150.748+325.111+150.216+325.254L128.658+331.03C128.125+331.173+127.578+330.857+127.436+330.325L124.163+318.112Z" fill-rule="evenodd" fill="#ffffff" opacity="1"/>
<path d="M154.14+310.08L154.14+310.08C153.997+309.547+154.313+309+154.846+308.857L176.404+303.08C176.659+303.012+176.932+303.048+177.161+303.18C177.39+303.312+177.557+303.53+177.626+303.786L180.898+315.999C181.041+316.531+180.725+317.078+180.192+317.221L158.635+322.998C158.102+323.14+157.555+322.824+157.412+322.292L154.14+310.08Z" fill-rule="evenodd" fill="#ffffff" opacity="1"/>
<path d="M184.117+302.047L184.117+302.047C183.974+301.514+184.29+300.967+184.823+300.824L206.38+295.048C206.636+294.979+206.908+295.015+207.138+295.147C207.367+295.28+207.534+295.498+207.603+295.753L210.875+307.966C211.018+308.498+210.702+309.045+210.169+309.188L188.611+314.965C188.079+315.107+187.532+314.792+187.389+314.259L184.117+302.047Z" fill-rule="evenodd" fill="#ffffff" opacity="1"/>
<path d="M129.284+337.223L129.284+337.223C129.141+336.691+129.457+336.144+129.99+336.001L151.547+330.224C151.803+330.156+152.076+330.191+152.305+330.324C152.534+330.456+152.701+330.674+152.77+330.93L156.042+343.142C156.185+343.675+155.869+344.222+155.336+344.364L133.778+350.141C133.246+350.284+132.699+349.968+132.556+349.436L129.284+337.223Z" fill-rule="evenodd" fill="#ffffff" opacity="1"/>
<path d="M159.261+329.19L159.261+329.19C159.118+328.658+159.434+328.111+159.966+327.968L181.524+322.191C181.78+322.123+182.052+322.159+182.282+322.291C182.511+322.423+182.678+322.641+182.747+322.897L186.019+335.109C186.161+335.642+185.846+336.189+185.313+336.332L163.755+342.108C163.223+342.251+162.676+341.935+162.533+341.403L159.261+329.19Z" fill-rule="evenodd" fill="#ffffff" opacity="1"/>
<path d="M189.238+321.158L189.238+321.158C189.095+320.625+189.411+320.078+189.943+319.935L211.501+314.159C211.757+314.09+212.029+314.126+212.258+314.258C212.488+314.391+212.655+314.608+212.723+314.864L215.996+327.077C216.138+327.609+215.822+328.156+215.29+328.299L193.732+334.076C193.2+334.218+192.652+333.902+192.51+333.37L189.238+321.158Z" fill-rule="evenodd" fill="#ffffff" opacity="1"/>
<path d="M134.402+356.325L134.402+356.325C134.26+355.793+134.575+355.245+135.108+355.103L156.666+349.326C156.921+349.257+157.194+349.293+157.423+349.426C157.652+349.558+157.819+349.776+157.888+350.031L161.16+362.244C161.303+362.776+160.987+363.323+160.455+363.466L138.897+369.243C138.364+369.386+137.817+369.07+137.674+368.537L134.402+356.325Z" fill-rule="evenodd" fill="#ffffff" opacity="1"/>
<path d="M164.379+348.292L164.379+348.292C164.236+347.76+164.552+347.213+165.085+347.07L186.643+341.293C186.898+341.225+187.171+341.26+187.4+341.393C187.629+341.525+187.796+341.743+187.865+341.999L191.137+354.211C191.28+354.743+190.964+355.291+190.431+355.433L168.874+361.21C168.341+361.353+167.794+361.037+167.651+360.505L164.379+348.292Z" fill-rule="evenodd" fill="#ffffff" opacity="1"/>
<path d="M194.356+340.259L194.356+340.259C194.213+339.727+194.529+339.18+195.061+339.037L216.619+333.26C216.875+333.192+217.147+333.228+217.377+333.36C217.606+333.492+217.773+333.71+217.842+333.966L221.114+346.178C221.256+346.711+220.941+347.258+220.408+347.401L198.85+353.177C198.318+353.32+197.771+353.004+197.628+352.472L194.356+340.259Z" fill-rule="evenodd" fill="#ffffff" opacity="1"/>
<path d="M85.093+207.176L199.96+176.405L203.613+190.042L88.747+220.814L85.093+207.176Z" fill-rule="evenodd" fill="#f3f3f3" opacity="1"/>
<path d="M91.629+231.569L206.496+200.797L210.149+214.435L95.283+245.206L91.629+231.569Z" fill-rule="evenodd" fill="#f3f3f3" opacity="1"/>
<path d="M98.165+255.961L213.031+225.189L216.685+238.827L101.819+269.599L98.165+255.961Z" fill-rule="evenodd" fill="#f3f3f3" opacity="1"/>
<path d="M353.792+37.2836L658.202+118.858L552.659+512.716L248.249+431.142L353.792+37.2836Z" fill-rule="evenodd" fill="#ffffff" opacity="1"/>
<path d="M353.792+35.2836L658.202+116.858L552.659+510.716L248.249+429.142L353.792+35.2836Z" fill-rule="evenodd" fill="#ffffff" opacity="1"/>
<path d="M476.641+187.692L591.507+218.464L587.854+232.102L472.988+201.33L476.641+187.692Z" fill-rule="evenodd" fill="#f3f3f3" opacity="1"/>
<path d="M470.105+212.085L584.972+242.856L581.318+256.494L466.452+225.722L470.105+212.085Z" fill-rule="evenodd" fill="#f3f3f3" opacity="1"/>
<path d="M463.57+236.477L578.436+267.249L574.782+280.886L459.916+250.115L463.57+236.477Z" fill-rule="evenodd" fill="#f3f3f3" opacity="1"/>
<path d="M175.649+37.9369L490.767+37.9369L490.767+445.716L175.649+445.716L175.649+37.9369Z" fill-rule="evenodd" fill="#ffffff" opacity="1"/>
<path d="M175.649+35.9369L490.767+35.9369L490.767+443.716L175.649+443.716L175.649+35.9369Z" fill-rule="evenodd" fill="#ffffff" opacity="1"/>
<path d="M80.454+162.514L80.454+162.514C72.605+154.339+70.325+142.301+74.64+131.822C78.954+121.343+89.05+114.4+100.379+114.121L101.083+142.709L80.454+162.514Z" fill-rule="evenodd" fill="#8e7cc3" opacity="1"/>
<path stroke="#ffffff" stroke-width="2" d="M80.454+162.514L80.454+162.514C72.605+154.339+70.325+142.301+74.64+131.822C78.954+121.343+89.05+114.4+100.379+114.121L101.083+142.709L80.454+162.514Z" fill="none" stroke-linecap="butt" opacity="1" stroke-linejoin="miter"/>
<path d="M125.178+158.111C120.353+165.661+112.268+170.512+103.336+171.218C94.405+171.924+85.658+168.403+79.707+161.705L101.083+142.709L125.178+158.111Z" fill-rule="evenodd" fill="#75b25a" opacity="1"/>
<path stroke="#ffffff" stroke-width="2" d="M125.178+158.111C120.353+165.661+112.268+170.512+103.336+171.218C94.405+171.924+85.658+168.403+79.707+161.705L101.083+142.709L125.178+158.111Z" fill="none" stroke-linecap="butt" opacity="1" stroke-linejoin="miter"/>
<path d="M127.924+132.841C131.392+142.273+129.654+152.833+123.347+160.657L101.083+142.709L127.924+132.841Z" fill-rule="evenodd" fill="#ffd966" opacity="1"/>
<path stroke="#ffffff" stroke-width="2" d="M127.924+132.841C131.392+142.273+129.654+152.833+123.347+160.657L101.083+142.709L127.924+132.841Z" fill="none" stroke-linecap="butt" opacity="1" stroke-linejoin="miter"/>
<path d="M100.285+114.123L100.285+114.123C114.584+113.724+126.978+123.951+129.301+138.066L101.083+142.709L100.285+114.123Z" fill-rule="evenodd" fill="#ed9233" opacity="1"/>
<path stroke="#ffffff" stroke-width="2" d="M100.285+114.123L100.285+114.123C114.584+113.724+126.978+123.951+129.301+138.066L101.083+142.709L100.285+114.123Z" fill="none" stroke-linecap="butt" opacity="1" stroke-linejoin="miter"/>
<path d="M394.602+145.033L394.602+145.033C394.602+144.024+395.419+143.206+396.428+143.206L403.734+143.206L403.734+143.206C404.218+143.206+404.683+143.399+405.025+143.741C405.368+144.084+405.56+144.548+405.56+145.033L405.56+178.58C405.56+179.589+404.742+180.407+403.734+180.407L396.428+180.407C395.419+180.407+394.602+179.589+394.602+178.58L394.602+145.033Z" fill-rule="evenodd" fill="#e06666" opacity="1"/>
<path d="M410.02+123.871L410.02+123.871C410.02+122.863+410.838+122.045+411.847+122.045L419.153+122.045L419.153+122.045C419.637+122.045+420.101+122.237+420.444+122.58C420.787+122.923+420.979+123.387+420.979+123.871L420.979+178.604C420.979+179.613+420.161+180.431+419.153+180.431L411.847+180.431C410.838+180.431+410.02+179.613+410.02+178.604L410.02+123.871Z" fill-rule="evenodd" fill="#6d9eeb" opacity="1"/>
<path d="M425.439+106.893L425.439+106.893C425.439+105.885+426.257+105.067+427.266+105.067L434.571+105.067L434.571+105.067C435.056+105.067+435.52+105.259+435.863+105.602C436.205+105.944+436.398+106.409+436.398+106.893L436.398+178.655C436.398+179.664+435.58+180.482+434.571+180.482L427.266+180.482C426.257+180.482+425.439+179.664+425.439+178.655L425.439+106.893Z" fill-rule="evenodd" fill="#ffe599" opacity="1"/>
<path d="M440.993+103.215L440.993+86.5686L435.683+86.5686L446.304+75.9479L456.924+86.5686L451.614+86.5686L451.614+103.215L440.993+103.215Z" fill-rule="evenodd" fill="#6aa84f" opacity="1"/>
<path d="M440.858+85.7734L440.858+85.7734C440.858+84.7647+441.676+83.9469+442.685+83.9469L449.99+83.9469L449.99+83.9469C450.475+83.9469+450.939+84.1394+451.282+84.4819C451.624+84.8244+451.817+85.289+451.817+85.7734L451.817+178.619C451.817+179.627+450.999+180.445+449.99+180.445L442.685+180.445C441.676+180.445+440.858+179.627+440.858+178.619L440.858+85.7734Z" fill-rule="evenodd" fill="#6aa84f" opacity="1"/>
<path d="M546.942+123.29L553.032+124.921L538.229+180.167L532.139+178.535L546.942+123.29Z" fill-rule="evenodd" fill="#595959" opacity="1"/>
<path d="M602.361+196.088L600.729+202.178L530.838+183.451L532.47+177.361L602.361+196.088Z" fill-rule="evenodd" fill="#595959" opacity="1"/>
<path d="M552.141+142.904L552.141+142.904C552.402+141.929+553.404+141.351+554.378+141.612L561.435+143.503L561.435+143.503C561.903+143.628+562.302+143.934+562.544+144.354C562.786+144.773+562.852+145.272+562.726+145.74L553.919+178.607C553.658+179.581+552.657+180.159+551.682+179.898L544.626+178.007C543.651+177.746+543.073+176.745+543.334+175.77L552.141+142.904Z" fill-rule="evenodd" fill="#45818e" opacity="1"/>
<path d="M564.348+156.918L564.348+156.918C564.609+155.944+565.611+155.366+566.585+155.627L573.642+157.518L573.642+157.518C574.109+157.643+574.508+157.949+574.751+158.369C574.993+158.788+575.058+159.287+574.933+159.755L568.807+182.616C568.546+183.591+567.545+184.169+566.57+183.908L559.514+182.017C558.539+181.756+557.961+180.755+558.222+179.78L564.348+156.918Z" fill-rule="evenodd" fill="#ffd966" opacity="1"/>
<path d="M581.915+150.928L581.915+150.928C582.176+149.954+583.178+149.375+584.152+149.636L591.209+151.527L591.209+151.527C591.677+151.653+592.076+151.959+592.318+152.378C592.56+152.798+592.626+153.296+592.5+153.764L583.694+186.631C583.433+187.606+582.431+188.184+581.457+187.923L574.4+186.032C573.426+185.771+572.847+184.769+573.109+183.795L581.915+150.928Z" fill-rule="evenodd" fill="#b4a7d6" opacity="1"/>
<path d="M598.602+148.224L598.602+148.224C598.863+147.249+599.865+146.671+600.839+146.932L607.896+148.823L607.896+148.823C608.364+148.948+608.763+149.255+609.005+149.674C609.247+150.094+609.313+150.592+609.187+151.06L598.593+190.597C598.332+191.571+597.331+192.15+596.356+191.888L589.299+189.998C588.325+189.737+587.747+188.735+588.008+187.761L598.602+148.224Z" fill-rule="evenodd" fill="#e69138" opacity="1"/>
<path d="M194.596+312.133L293.726+292.454L296.445+299.868L197.315+319.547L194.596+312.133Z" fill-rule="evenodd" fill="#76a5af" opacity="1"/>
<path d="M294.246+293.171L423.412+372.528L416.861+378.478L287.695+299.121L294.246+293.171Z" fill-rule="evenodd" fill="#76a5af" opacity="1"/>
<path d="M413.913+370.979L456.927+362.466L459.646+369.88L416.633+378.393L413.913+370.979Z" fill-rule="evenodd" fill="#76a5af" opacity="1"/>
<path d="M451.667+358.109L469.218+363.235L459.825+375.317L451.667+358.109Z" fill-rule="evenodd" fill="#76a5af" opacity="1"/>
<path d="M197.226+356.792L272.377+329.241L277.074+336.106L201.923+363.657L197.226+356.792Z" fill-rule="evenodd" fill="#cc4125" opacity="1"/>
<path d="M273.243+330.469L322.931+367.997L315.639+373.397L265.95+335.869L273.243+330.469Z" fill-rule="evenodd" fill="#cc4125" opacity="1"/>
<path d="M311.836+366.28L441.991+321.247L446.44+328.111L316.286+373.145L311.836+366.28Z" fill-rule="evenodd" fill="#cc4125" opacity="1"/>
<path d="M436.343+317.547L454.76+320.797L447.715+333.748L436.343+317.547Z" fill-rule="evenodd" fill="#cc0000" opacity="1"/>
<path d="M190.215+333.544L212.587+325.306L217.284+332.171L194.912+340.409L190.215+333.544Z" fill-rule="evenodd" fill="#f1c232" opacity="1"/>
<path d="M213.457+326.019L263.145+363.547L255.853+368.947L206.164+331.42L213.457+326.019Z" fill-rule="evenodd" fill="#f1c232" opacity="1"/>
<path d="M251.998+361.988L378.568+315.398L383.264+322.263L256.695+368.852L251.998+361.988Z" fill-rule="evenodd" fill="#f1c232" opacity="1"/>
<path d="M365.944+314.506L384.67+316.657L378.922+329.975L365.944+314.506Z" fill-rule="evenodd" fill="#f1c232" opacity="1"/>
<path d="M180.51+300.218L202.14+300.218L202.14+365.388L180.51+365.388L180.51+300.218Z" fill-rule="evenodd" fill="#ffffff" opacity="1"/>
<path d="M219.528+102.425L219.528+102.425C228.893+89.8485+244.36+83.3647+259.895+85.5039L254.027+128.114L219.528+102.425Z" fill-rule="evenodd" fill="#f1a759" opacity="1"/>
<path d="M277.914+163.885C260.375+175.597+236.931+172.865+222.555+157.434C208.179+142.002+207.112+118.424+220.036+101.757L254.027+128.114L277.914+163.885Z" fill-rule="evenodd" fill="#72d997" opacity="1"/>
<path d="M294.397+113.272C301.824+133.472+293.178+156.052+274.159+166.125L254.027+128.114L294.397+113.272Z" fill-rule="evenodd" fill="#595959" opacity="1"/>
<path d="M254.676+85.1067L254.676+85.1067C275.488+85.4208+293.089+100.592+296.469+121.13L254.027+128.114L254.676+85.1067Z" fill-rule="evenodd" fill="#e06666" opacity="1"/>
<path d="M223.276+128.119L223.276+128.119C223.276+111.315+236.898+97.6939+253.701+97.6939L253.701+97.6939C261.771+97.6939+269.509+100.899+275.215+106.605C280.921+112.311+284.126+120.05+284.126+128.119L284.126+128.119C284.126+144.922+270.505+158.544+253.701+158.544L253.701+158.544C236.898+158.544+223.276+144.922+223.276+128.119Z" fill-rule="evenodd" fill="#ffffff" opacity="1"/>
<path d="M202.263+207.52L464.153+207.52L464.153+221.63L202.263+221.63L202.263+207.52Z" fill-rule="evenodd" fill="#f3f3f3" opacity="1"/>
<path d="M202.263+232.772L464.153+232.772L464.153+246.882L202.263+246.882L202.263+232.772Z" fill-rule="evenodd" fill="#f3f3f3" opacity="1"/>
<path d="M202.263+258.024L464.153+258.024L464.153+272.134L202.263+272.134L202.263+258.024Z" fill-rule="evenodd" fill="#f3f3f3" opacity="1"/>
<path d="M206.15+404.637L206.15+404.637C206.15+403.338+207.203+402.285+208.502+402.285L217.909+402.285L217.909+402.285C218.532+402.285+219.131+402.533+219.572+402.974C220.013+403.415+220.26+404.013+220.26+404.637L220.26+414.043C220.26+415.342+219.208+416.395+217.909+416.395L208.502+416.395C207.203+416.395+206.15+415.342+206.15+414.043L206.15+404.637Z" fill-rule="evenodd" fill="#cc4125" opacity="1"/>
<path d="M296.377+404.637L296.377+404.637C296.377+403.338+297.43+402.285+298.729+402.285L308.136+402.285L308.136+402.285C308.759+402.285+309.357+402.533+309.798+402.974C310.24+403.415+310.487+404.013+310.487+404.637L310.487+414.043C310.487+415.342+309.434+416.395+308.136+416.395L298.729+416.395C297.43+416.395+296.377+415.342+296.377+414.043L296.377+404.637Z" fill-rule="evenodd" fill="#76a5af" opacity="1"/>
<path d="M386.604+404.637L386.604+404.637C386.604+403.338+387.657+402.285+388.956+402.285L398.362+402.285L398.362+402.285C398.986+402.285+399.584+402.533+400.025+402.974C400.466+403.415+400.714+404.013+400.714+404.637L400.714+414.043C400.714+415.342+399.661+416.395+398.362+416.395L388.956+416.395C387.657+416.395+386.604+415.342+386.604+414.043L386.604+404.637Z" fill-rule="evenodd" fill="#f1c232" opacity="1"/>
<path d="M229.72+402.285L286.917+402.285L286.917+416.395L229.72+416.395L229.72+402.285Z" fill-rule="evenodd" fill="#f3f3f3" opacity="1"/>
<path d="M319.947+402.285L377.144+402.285L377.144+416.395L319.947+416.395L319.947+402.285Z" fill-rule="evenodd" fill="#f3f3f3" opacity="1"/>
<path d="M410.174+402.285L467.371+402.285L467.371+416.395L410.174+416.395L410.174+402.285Z" fill-rule="evenodd" fill="#f3f3f3" opacity="1"/>
</g>
</svg>
