<?xml version="1.0" encoding="UTF-8" standalone="no"?> <!-- Created with Vectornator for iOS (http://vectornator.io/) --><!DOCTYPE svg PUBLIC "-//W3C//DTD SVG 1.1//EN" "http://www.w3.org/Graphics/SVG/1.1/DTD/svg11.dtd">
<svg height="100%" style="fill-rule:nonzero;clip-rule:evenodd;stroke-linecap:round;stroke-linejoin:round;" xmlns:xlink="http://www.w3.org/1999/xlink" xmlns="http://www.w3.org/2000/svg" xml:space="preserve" width="100%" xmlns:vectornator="http://vectornator.io" version="1.1" viewBox="0 0 632.381 369.659">
<metadata>
<vectornator:setting key="DimensionsVisible" value="1"/>
<vectornator:setting key="PencilOnly" value="0"/>
<vectornator:setting key="SnapToPoints" value="0"/>
<vectornator:setting key="OutlineMode" value="0"/>
<vectornator:setting key="CMYKEnabledKey" value="0"/>
<vectornator:setting key="GuidesVisible" value="1"/>
<vectornator:setting key="SnapToEdges" value="0"/>
<vectornator:setting key="RulersVisible" value="1"/>
<vectornator:setting key="DisplayWhiteBackground" value="0"/>
<vectornator:setting key="doHistoryDisabled" value="0"/>
<vectornator:setting key="SnapToGuides" value="1"/>
<vectornator:setting key="TimeLapseWatermarkDisabled" value="0"/>
<vectornator:setting key="Units" value="Points"/>
<vectornator:setting key="SnapToGrid" value="0"/>
<vectornator:setting key="DynamicGuides" value="0"/>
<vectornator:setting key="IsolateActiveLayer" value="0"/>
</metadata>
<defs/>
<g id="Untitled" vectornator:layerName="Untitled">
<g opacity="1">
<path d="M36.7447+42.8644L36.7447+42.8644C36.7447+40.5406+38.6285+38.6568+40.9523+38.6568L303.435+38.6568C304.551+38.6568+305.621+39.1001+306.41+39.8892C307.199+40.6783+307.642+41.7485+307.642+42.8644L307.642+128.056C307.642+130.379+305.758+132.263+303.435+132.263L40.9523+132.263L40.9523+132.263C38.6285+132.263+36.7447+130.379+36.7447+128.056L36.7447+42.8644Z" opacity="1" fill="#ffffff"/>
<path d="M36.7447+40.8644L36.7447+40.8644C36.7447+38.5406+38.6285+36.6568+40.9523+36.6568L303.435+36.6568C304.551+36.6568+305.621+37.1001+306.41+37.8892C307.199+38.6783+307.642+39.7485+307.642+40.8644L307.642+126.056C307.642+128.379+305.758+130.263+303.435+130.263L40.9523+130.263L40.9523+130.263C38.6285+130.263+36.7447+128.379+36.7447+126.056L36.7447+40.8644Z" opacity="1" fill="#ffffff"/>
<path d="M36.7447+149.001L36.7447+149.001C36.7447+145.662+39.4513+142.955+42.7901+142.955L301.597+142.955C303.2+142.955+304.738+143.592+305.872+144.726C307.005+145.86+307.642+147.397+307.642+149.001L307.642+326.957C307.642+330.296+304.936+333.003+301.597+333.003L42.7901+333.003C39.4513+333.003+36.7447+330.296+36.7447+326.957L36.7447+149.001Z" opacity="1" fill="#ffffff"/>
<path d="M36.7447+147.001L36.7447+147.001C36.7447+143.662+39.4513+140.955+42.7901+140.955L301.597+140.955C303.2+140.955+304.738+141.592+305.872+142.726C307.005+143.86+307.642+145.397+307.642+147.001L307.642+324.957C307.642+328.296+304.936+331.003+301.597+331.003L42.7901+331.003C39.4513+331.003+36.7447+328.296+36.7447+324.957L36.7447+147.001Z" opacity="1" fill="#ffffff"/>
<path d="M93.7825+40.0174L250.633+40.0174L250.633+65.1198L93.7825+65.1198L93.7825+40.0174Z" fill-opacity="0" fill="#000000" opacity="1"/>
<path d="M125.025+52.2706L126.963+52.2706L126.963+57.4424C126.963+58.2653+126.984+58.7966+127.025+59.0362C127.109+59.432+127.307+59.7497+127.619+59.9893C127.932+60.2185+128.354+60.3331+128.885+60.3331C129.437+60.3331+129.848+60.2237+130.119+60.0049C130.4+59.7758+130.567+59.4997+130.619+59.1768C130.682+58.8539+130.713+58.3122+130.713+57.5518L130.713+52.2706L132.635+52.2706L132.635+57.2862C132.635+58.432+132.583+59.2445+132.479+59.7237C132.374+60.1924+132.182+60.5883+131.9+60.9112C131.619+61.2341+131.244+61.4945+130.775+61.6924C130.307+61.8799+129.697+61.9737+128.947+61.9737C128.031+61.9737+127.338+61.8695+126.869+61.6612C126.4+61.4528+126.031+61.182+125.76+60.8487C125.489+60.5049+125.307+60.1508+125.213+59.7862C125.088+59.2445+125.025+58.4372+125.025+57.3643L125.025+52.2706ZM140.947+61.8174L139.119+61.8174L139.119+58.2862C139.119+57.5466+139.078+57.0674+138.994+56.8487C138.921+56.6299+138.796+56.4581+138.619+56.3331C138.442+56.2081+138.229+56.1456+137.979+56.1456C137.666+56.1456+137.38+56.2341+137.119+56.4112C136.869+56.5883+136.697+56.8226+136.604+57.1143C136.51+57.3956+136.463+57.9216+136.463+58.6924L136.463+61.8174L134.635+61.8174L134.635+54.9112L136.338+54.9112L136.338+55.9268C136.942+55.1456+137.703+54.7549+138.619+54.7549C139.026+54.7549+139.395+54.8278+139.729+54.9737C140.062+55.1195+140.312+55.307+140.479+55.5362C140.656+55.7549+140.776+56.0101+140.838+56.3018C140.911+56.5831+140.947+56.9893+140.947+57.5206L140.947+61.8174ZM142.792+53.9737L142.792+52.2706L144.62+52.2706L144.62+53.9737L142.792+53.9737ZM142.792+61.8174L142.792+54.9112L144.62+54.9112L144.62+61.8174L142.792+61.8174ZM149.667+54.9112L149.667+56.3643L148.417+56.3643L148.417+59.1456C148.417+59.7081+148.427+60.0362+148.448+60.1299C148.479+60.2237+148.537+60.3018+148.62+60.3643C148.703+60.4268+148.807+60.4581+148.932+60.4581C149.099+60.4581+149.344+60.4008+149.667+60.2862L149.823+61.7081C149.396+61.8851+148.912+61.9737+148.37+61.9737C148.047+61.9737+147.75+61.9216+147.479+61.8174C147.219+61.7028+147.026+61.557+146.901+61.3799C146.776+61.2028+146.688+60.9633+146.636+60.6612C146.604+60.4528+146.589+60.0258+146.589+59.3799L146.589+56.3643L145.745+56.3643L145.745+54.9112L146.589+54.9112L146.589+53.5362L148.417+52.4581L148.417+54.9112L149.667+54.9112ZM150.293+59.8487L152.121+59.5674C152.204+59.9216+152.366+60.1924+152.605+60.3799C152.845+60.557+153.178+60.6456+153.605+60.6456C154.074+60.6456+154.428+60.5622+154.668+60.3956C154.834+60.2706+154.918+60.1091+154.918+59.9112C154.918+59.7653+154.871+59.6456+154.777+59.5518C154.694+59.4685+154.491+59.3903+154.168+59.3174C152.699+58.9945+151.767+58.6976+151.371+58.4268C150.819+58.0518+150.543+57.531+150.543+56.8643C150.543+56.2706+150.777+55.7706+151.246+55.3643C151.725+54.9581+152.459+54.7549+153.449+54.7549C154.397+54.7549+155.1+54.9112+155.558+55.2237C156.027+55.5258+156.345+55.9789+156.511+56.5831L154.793+56.8956C154.72+56.6247+154.579+56.4216+154.371+56.2862C154.162+56.1403+153.866+56.0674+153.48+56.0674C153.001+56.0674+152.657+56.1351+152.449+56.2706C152.314+56.3643+152.246+56.4841+152.246+56.6299C152.246+56.7653+152.308+56.8799+152.433+56.9737C152.59+57.0883+153.152+57.2601+154.121+57.4893C155.1+57.7081+155.787+57.9789+156.183+58.3018C156.558+58.6247+156.746+59.0778+156.746+59.6612C156.746+60.2966+156.48+60.8435+155.949+61.3018C155.428+61.7497+154.647+61.9737+153.605+61.9737C152.668+61.9737+151.923+61.7862+151.371+61.4112C150.819+61.0258+150.459+60.5049+150.293+59.8487ZM162.002+61.8174L162.002+52.2706L163.939+52.2706L163.939+61.8174L162.002+61.8174ZM172.049+61.8174L170.221+61.8174L170.221+58.2862C170.221+57.5466+170.179+57.0674+170.096+56.8487C170.023+56.6299+169.898+56.4581+169.721+56.3331C169.543+56.2081+169.33+56.1456+169.08+56.1456C168.767+56.1456+168.481+56.2341+168.221+56.4112C167.971+56.5883+167.799+56.8226+167.705+57.1143C167.611+57.3956+167.564+57.9216+167.564+58.6924L167.564+61.8174L165.736+61.8174L165.736+54.9112L167.439+54.9112L167.439+55.9268C168.043+55.1456+168.804+54.7549+169.721+54.7549C170.127+54.7549+170.497+54.8278+170.83+54.9737C171.163+55.1195+171.413+55.307+171.58+55.5362C171.757+55.7549+171.877+56.0101+171.939+56.3018C172.012+56.5831+172.049+56.9893+172.049+57.5206L172.049+61.8174ZM179.768+61.8174L179.768+53.8956L176.924+53.8956L176.924+52.2706L184.518+52.2706L184.518+53.8956L181.69+53.8956L181.69+61.8174L179.768+61.8174ZM186.752+61.8174L184.924+61.8174L184.924+54.9112L186.627+54.9112L186.627+55.8956C186.918+55.4268+187.179+55.1195+187.408+54.9737C187.637+54.8278+187.903+54.7549+188.205+54.7549C188.622+54.7549+189.023+54.8695+189.408+55.0987L188.846+56.6924C188.533+56.4945+188.247+56.3956+187.986+56.3956C187.726+56.3956+187.507+56.4685+187.33+56.6143C187.153+56.7497+187.012+57.0049+186.908+57.3799C186.804+57.7445+186.752+58.5101+186.752+59.6768L186.752+61.8174ZM191.564+57.0206L189.892+56.7081C190.079+56.0414+190.402+55.5518+190.86+55.2393C191.319+54.9164+191.996+54.7549+192.892+54.7549C193.704+54.7549+194.308+54.8539+194.704+55.0518C195.11+55.2393+195.392+55.4841+195.548+55.7862C195.715+56.0778+195.798+56.6195+195.798+57.4112L195.782+59.5518C195.782+60.156+195.808+60.6039+195.86+60.8956C195.923+61.1768+196.038+61.4841+196.204+61.8174L194.392+61.8174C194.34+61.6924+194.282+61.5101+194.22+61.2706C194.189+61.1664+194.163+61.0987+194.142+61.0674C193.829+61.3695+193.496+61.5987+193.142+61.7549C192.788+61.9008+192.407+61.9737+192.001+61.9737C191.293+61.9737+190.73+61.781+190.314+61.3956C189.907+61.0101+189.704+60.5206+189.704+59.9268C189.704+59.5414+189.798+59.1976+189.985+58.8956C190.173+58.5831+190.433+58.3487+190.767+58.1924C191.11+58.0258+191.6+57.8799+192.235+57.7549C193.09+57.5987+193.678+57.4476+194.001+57.3018L194.001+57.1299C194.001+56.7758+193.913+56.5258+193.735+56.3799C193.569+56.2237+193.246+56.1456+192.767+56.1456C192.444+56.1456+192.189+56.2133+192.001+56.3487C191.824+56.4737+191.678+56.6976+191.564+57.0206ZM194.001+58.5049C193.772+58.5778+193.402+58.6716+192.892+58.7862C192.381+58.8903+192.048+58.9945+191.892+59.0987C191.652+59.2653+191.532+59.4789+191.532+59.7393C191.532+59.9997+191.626+60.2237+191.814+60.4112C192.012+60.5987+192.256+60.6924+192.548+60.6924C192.881+60.6924+193.199+60.5831+193.501+60.3643C193.72+60.1976+193.866+59.9945+193.939+59.7549C193.98+59.5987+194.001+59.3018+194.001+58.8643L194.001+58.5049ZM203.898+61.8174L202.07+61.8174L202.07+58.2862C202.07+57.5466+202.028+57.0674+201.945+56.8487C201.872+56.6299+201.747+56.4581+201.57+56.3331C201.393+56.2081+201.179+56.1456+200.929+56.1456C200.617+56.1456+200.33+56.2341+200.07+56.4112C199.82+56.5883+199.648+56.8226+199.554+57.1143C199.46+57.3956+199.414+57.9216+199.414+58.6924L199.414+61.8174L197.585+61.8174L197.585+54.9112L199.289+54.9112L199.289+55.9268C199.893+55.1456+200.653+54.7549+201.57+54.7549C201.976+54.7549+202.346+54.8278+202.679+54.9737C203.013+55.1195+203.263+55.307+203.429+55.5362C203.606+55.7549+203.726+56.0101+203.789+56.3018C203.861+56.5831+203.898+56.9893+203.898+57.5206L203.898+61.8174ZM205.102+59.8487L206.93+59.5674C207.013+59.9216+207.175+60.1924+207.414+60.3799C207.654+60.557+207.987+60.6456+208.414+60.6456C208.883+60.6456+209.237+60.5622+209.477+60.3956C209.643+60.2706+209.727+60.1091+209.727+59.9112C209.727+59.7653+209.68+59.6456+209.586+59.5518C209.503+59.4685+209.3+59.3903+208.977+59.3174C207.508+58.9945+206.576+58.6976+206.18+58.4268C205.628+58.0518+205.352+57.531+205.352+56.8643C205.352+56.2706+205.586+55.7706+206.055+55.3643C206.534+54.9581+207.268+54.7549+208.258+54.7549C209.206+54.7549+209.909+54.9112+210.367+55.2237C210.836+55.5258+211.154+55.9789+211.321+56.5831L209.602+56.8956C209.529+56.6247+209.388+56.4216+209.18+56.2862C208.972+56.1403+208.675+56.0674+208.289+56.0674C207.81+56.0674+207.466+56.1351+207.258+56.2706C207.123+56.3643+207.055+56.4841+207.055+56.6299C207.055+56.7653+207.117+56.8799+207.242+56.9737C207.399+57.0883+207.961+57.2601+208.93+57.4893C209.909+57.7081+210.597+57.9789+210.992+58.3018C211.367+58.6247+211.555+59.0778+211.555+59.6612C211.555+60.2966+211.289+60.8435+210.758+61.3018C210.237+61.7497+209.456+61.9737+208.414+61.9737C207.477+61.9737+206.732+61.7862+206.18+61.4112C205.628+61.0258+205.268+60.5049+205.102+59.8487ZM213.155+53.9737L213.155+52.2706L214.983+52.2706L214.983+53.9737L213.155+53.9737ZM213.155+61.8174L213.155+54.9112L214.983+54.9112L214.983+61.8174L213.155+61.8174ZM220.03+54.9112L220.03+56.3643L218.78+56.3643L218.78+59.1456C218.78+59.7081+218.79+60.0362+218.811+60.1299C218.842+60.2237+218.9+60.3018+218.983+60.3643C219.066+60.4268+219.17+60.4581+219.295+60.4581C219.462+60.4581+219.707+60.4008+220.03+60.2862L220.186+61.7081C219.759+61.8851+219.275+61.9737+218.733+61.9737C218.41+61.9737+218.113+61.9216+217.842+61.8174C217.582+61.7028+217.389+61.557+217.264+61.3799C217.139+61.2028+217.051+60.9633+216.999+60.6612C216.967+60.4528+216.952+60.0258+216.952+59.3799L216.952+56.3643L216.108+56.3643L216.108+54.9112L216.952+54.9112L216.952+53.5362L218.78+52.4581L218.78+54.9112L220.03+54.9112Z" opacity="1" fill="#e69138"/>
<path d="M93.7825+80.6601L250.633+80.6601L250.633+105.762L93.7825+105.762L93.7825+80.6601Z" fill-opacity="0" fill="#000000" opacity="1"/>
<path d="M133.244+101.893L139.994+101.19C140.182+102.721+140.75+103.935+141.697+104.831C142.645+105.716+143.739+106.159+144.979+106.159C146.395+106.159+147.593+105.586+148.572+104.44C149.552+103.284+150.041+101.549+150.041+99.2369C150.041+97.0702+149.552+95.4452+148.572+94.3619C147.604+93.2786+146.343+92.7369+144.791+92.7369C142.843+92.7369+141.098+93.5963+139.557+95.315L134.072+94.5181L137.541+76.1431L155.432+76.1431L155.432+82.4713L142.666+82.4713L141.604+88.4713C143.114+87.7213+144.656+87.3463+146.229+87.3463C149.229+87.3463+151.77+88.44+153.854+90.6275C155.947+92.8046+156.994+95.6379+156.994+99.1275C156.994+102.034+156.151+104.622+154.463+106.893C152.171+110.018+148.984+111.581+144.901+111.581C141.64+111.581+138.984+110.706+136.932+108.956C134.88+107.195+133.651+104.841+133.244+101.893ZM160.725+102.799L167.288+102.081C167.444+103.414+167.861+104.404+168.538+105.049C169.215+105.685+170.105+106.003+171.21+106.003C172.605+106.003+173.793+105.362+174.772+104.081C175.751+102.799+176.376+100.133+176.647+96.0806C174.949+98.0598+172.824+99.0494+170.272+99.0494C167.491+99.0494+165.09+97.9765+163.069+95.8306C161.058+93.6848+160.053+90.8931+160.053+87.4556C160.053+83.8827+161.116+81.0025+163.241+78.815C165.376+76.6171+168.09+75.5181+171.381+75.5181C174.954+75.5181+177.887+76.9036+180.178+79.6744C182.48+82.4452+183.631+87.0025+183.631+93.3463C183.631+99.7942+182.433+104.45+180.038+107.315C177.652+110.169+174.543+111.596+170.71+111.596C167.939+111.596+165.704+110.862+164.006+109.393C162.308+107.924+161.215+105.726+160.725+102.799ZM176.053+88.0181C176.053+85.8306+175.548+84.1379+174.538+82.94C173.538+81.7317+172.381+81.1275+171.069+81.1275C169.808+81.1275+168.767+81.6223+167.944+82.6119C167.121+83.6015+166.71+85.2161+166.71+87.4556C166.71+89.7369+167.157+91.414+168.053+92.4869C168.949+93.5494+170.074+94.0806+171.428+94.0806C172.73+94.0806+173.824+93.5702+174.71+92.5494C175.605+91.5181+176.053+90.0077+176.053+88.0181ZM188.112+101.893L194.862+101.19C195.05+102.721+195.617+103.935+196.565+104.831C197.513+105.716+198.607+106.159+199.847+106.159C201.263+106.159+202.461+105.586+203.44+104.44C204.42+103.284+204.909+101.549+204.909+99.2369C204.909+97.0702+204.42+95.4452+203.44+94.3619C202.472+93.2786+201.211+92.7369+199.659+92.7369C197.711+92.7369+195.966+93.5963+194.425+95.315L188.94+94.5181L192.409+76.1431L210.3+76.1431L210.3+82.4713L197.534+82.4713L196.472+88.4713C197.982+87.7213+199.524+87.3463+201.097+87.3463C204.097+87.3463+206.638+88.44+208.722+90.6275C210.815+92.8046+211.862+95.6379+211.862+99.1275C211.862+102.034+211.018+104.622+209.331+106.893C207.039+110.018+203.852+111.581+199.768+111.581C196.508+111.581+193.852+110.706+191.8+108.956C189.748+107.195+188.518+104.841+188.112+101.893Z" opacity="1" fill="#e69138"/>
<path d="M324.739+42.8644L324.739+42.8644C324.739+40.5406+326.623+38.6568+328.946+38.6568L591.429+38.6568C592.545+38.6568+593.615+39.1001+594.404+39.8892C595.193+40.6783+595.636+41.7485+595.636+42.8644L595.636+128.056C595.636+130.379+593.753+132.263+591.429+132.263L328.946+132.263L328.946+132.263C326.623+132.263+324.739+130.379+324.739+128.056L324.739+42.8644Z" opacity="1" fill="#ffffff"/>
<path d="M324.739+40.8644L324.739+40.8644C324.739+38.5406+326.623+36.6568+328.946+36.6568L591.429+36.6568C592.545+36.6568+593.615+37.1001+594.404+37.8892C595.193+38.6783+595.636+39.7485+595.636+40.8644L595.636+126.056C595.636+128.379+593.753+130.263+591.429+130.263L328.946+130.263L328.946+130.263C326.623+130.263+324.739+128.379+324.739+126.056L324.739+40.8644Z" opacity="1" fill="#ffffff"/>
<path d="M324.739+149.001L324.739+149.001C324.739+145.662+327.445+142.955+330.784+142.955L589.591+142.955C591.194+142.955+592.732+143.592+593.866+144.726C595+145.86+595.636+147.397+595.636+149.001L595.636+326.957C595.636+330.296+592.93+333.003+589.591+333.003L330.784+333.003C327.445+333.003+324.739+330.296+324.739+326.957L324.739+149.001Z" opacity="1" fill="#ffffff"/>
<path d="M324.739+147.001L324.739+147.001C324.739+143.662+327.445+140.955+330.784+140.955L589.591+140.955C591.194+140.955+592.732+141.592+593.866+142.726C595+143.86+595.636+145.397+595.636+147.001L595.636+324.957C595.636+328.296+592.93+331.003+589.591+331.003L330.784+331.003C327.445+331.003+324.739+328.296+324.739+324.957L324.739+147.001Z" opacity="1" fill="#ffffff"/>
<path d="M381.777+40.0174L538.627+40.0174L538.627+65.1198L381.777+65.1198L381.777+40.0174Z" fill-opacity="0" fill="#000000" opacity="1"/>
<path d="M412.639+52.2706L414.576+52.2706L414.576+57.4424C414.576+58.2653+414.597+58.7966+414.639+59.0362C414.722+59.432+414.92+59.7497+415.232+59.9893C415.545+60.2185+415.967+60.3331+416.498+60.3331C417.05+60.3331+417.462+60.2237+417.732+60.0049C418.014+59.7758+418.18+59.4997+418.232+59.1768C418.295+58.8539+418.326+58.3122+418.326+57.5518L418.326+52.2706L420.248+52.2706L420.248+57.2862C420.248+58.432+420.196+59.2445+420.092+59.7237C419.988+60.1924+419.795+60.5883+419.514+60.9112C419.232+61.2341+418.857+61.4945+418.389+61.6924C417.92+61.8799+417.311+61.9737+416.561+61.9737C415.644+61.9737+414.951+61.8695+414.482+61.6612C414.014+61.4528+413.644+61.182+413.373+60.8487C413.102+60.5049+412.92+60.1508+412.826+59.7862C412.701+59.2445+412.639+58.4372+412.639+57.3643L412.639+52.2706ZM428.561+61.8174L426.733+61.8174L426.733+58.2862C426.733+57.5466+426.691+57.0674+426.608+56.8487C426.535+56.6299+426.41+56.4581+426.233+56.3331C426.056+56.2081+425.842+56.1456+425.592+56.1456C425.28+56.1456+424.993+56.2341+424.733+56.4112C424.483+56.5883+424.311+56.8226+424.217+57.1143C424.123+57.3956+424.076+57.9216+424.076+58.6924L424.076+61.8174L422.248+61.8174L422.248+54.9112L423.951+54.9112L423.951+55.9268C424.556+55.1456+425.316+54.7549+426.233+54.7549C426.639+54.7549+427.009+54.8278+427.342+54.9737C427.675+55.1195+427.925+55.307+428.092+55.5362C428.269+55.7549+428.389+56.0101+428.451+56.3018C428.524+56.5831+428.561+56.9893+428.561+57.5206L428.561+61.8174ZM430.405+53.9737L430.405+52.2706L432.233+52.2706L432.233+53.9737L430.405+53.9737ZM430.405+61.8174L430.405+54.9112L432.233+54.9112L432.233+61.8174L430.405+61.8174ZM437.28+54.9112L437.28+56.3643L436.03+56.3643L436.03+59.1456C436.03+59.7081+436.041+60.0362+436.061+60.1299C436.093+60.2237+436.15+60.3018+436.233+60.3643C436.317+60.4268+436.421+60.4581+436.546+60.4581C436.712+60.4581+436.957+60.4008+437.28+60.2862L437.436+61.7081C437.009+61.8851+436.525+61.9737+435.983+61.9737C435.66+61.9737+435.363+61.9216+435.093+61.8174C434.832+61.7028+434.64+61.557+434.515+61.3799C434.39+61.2028+434.301+60.9633+434.249+60.6612C434.218+60.4528+434.202+60.0258+434.202+59.3799L434.202+56.3643L433.358+56.3643L433.358+54.9112L434.202+54.9112L434.202+53.5362L436.03+52.4581L436.03+54.9112L437.28+54.9112ZM437.906+59.8487L439.734+59.5674C439.817+59.9216+439.979+60.1924+440.219+60.3799C440.458+60.557+440.791+60.6456+441.219+60.6456C441.687+60.6456+442.041+60.5622+442.281+60.3956C442.448+60.2706+442.531+60.1091+442.531+59.9112C442.531+59.7653+442.484+59.6456+442.39+59.5518C442.307+59.4685+442.104+59.3903+441.781+59.3174C440.312+58.9945+439.38+58.6976+438.984+58.4268C438.432+58.0518+438.156+57.531+438.156+56.8643C438.156+56.2706+438.39+55.7706+438.859+55.3643C439.338+54.9581+440.073+54.7549+441.062+54.7549C442.01+54.7549+442.713+54.9112+443.172+55.2237C443.64+55.5258+443.958+55.9789+444.125+56.5831L442.406+56.8956C442.333+56.6247+442.192+56.4216+441.984+56.2862C441.776+56.1403+441.479+56.0674+441.094+56.0674C440.614+56.0674+440.271+56.1351+440.062+56.2706C439.927+56.3643+439.859+56.4841+439.859+56.6299C439.859+56.7653+439.922+56.8799+440.047+56.9737C440.203+57.0883+440.765+57.2601+441.734+57.4893C442.713+57.7081+443.401+57.9789+443.797+58.3018C444.172+58.6247+444.359+59.0778+444.359+59.6612C444.359+60.2966+444.094+60.8435+443.562+61.3018C443.041+61.7497+442.26+61.9737+441.219+61.9737C440.281+61.9737+439.536+61.7862+438.984+61.4112C438.432+61.0258+438.073+60.5049+437.906+59.8487ZM449.678+52.2706L453.193+52.2706C453.985+52.2706+454.589+52.3331+455.006+52.4581C455.568+52.6247+456.048+52.9216+456.443+53.3487C456.85+53.7653+457.157+54.281+457.365+54.8956C457.574+55.4997+457.678+56.2497+457.678+57.1456C457.678+57.9268+457.579+58.5987+457.381+59.1612C457.141+59.8591+456.798+60.4216+456.35+60.8487C456.016+61.182+455.568+61.4372+455.006+61.6143C454.579+61.7497+454.011+61.8174+453.303+61.8174L449.678+61.8174L449.678+52.2706ZM451.6+53.8956L451.6+60.2081L453.037+60.2081C453.579+60.2081+453.969+60.1768+454.209+60.1143C454.521+60.0414+454.777+59.9112+454.975+59.7237C455.183+59.5362+455.35+59.2289+455.475+58.8018C455.61+58.3747+455.678+57.7914+455.678+57.0518C455.678+56.3122+455.61+55.7497+455.475+55.3643C455.35+54.9685+455.167+54.6612+454.928+54.4424C454.699+54.2133+454.407+54.0622+454.053+53.9893C453.782+53.9268+453.251+53.8956+452.459+53.8956L451.6+53.8956ZM463.287+59.6143L465.115+59.9268C464.886+60.5935+464.516+61.1039+464.006+61.4581C463.496+61.8018+462.865+61.9737+462.115+61.9737C460.907+61.9737+460.016+61.5831+459.443+60.8018C458.985+60.1664+458.756+59.3695+458.756+58.4112C458.756+57.2653+459.053+56.3695+459.647+55.7237C460.251+55.0778+461.011+54.7549+461.928+54.7549C462.959+54.7549+463.772+55.0935+464.365+55.7706C464.959+56.4476+465.24+57.4893+465.209+58.8956L460.631+58.8956C460.641+59.4372+460.787+59.8591+461.068+60.1612C461.35+60.4633+461.704+60.6143+462.131+60.6143C462.412+60.6143+462.652+60.5362+462.85+60.3799C463.048+60.2237+463.193+59.9685+463.287+59.6143ZM463.397+57.7706C463.386+57.2393+463.251+56.8383+462.99+56.5674C462.73+56.2862+462.412+56.1456+462.037+56.1456C461.641+56.1456+461.313+56.2914+461.053+56.5831C460.792+56.8747+460.662+57.2706+460.662+57.7706L463.397+57.7706ZM466.7+61.8174L466.7+52.2706L468.528+52.2706L468.528+61.8174L466.7+61.8174ZM470.403+53.9737L470.403+52.2706L472.231+52.2706L472.231+53.9737L470.403+53.9737ZM470.403+61.8174L470.403+54.9112L472.231+54.9112L472.231+61.8174L470.403+61.8174ZM476.012+61.8174L473.231+54.9112L475.137+54.9112L476.449+58.4268L476.824+59.6143C476.918+59.3122+476.981+59.1143+477.012+59.0206C477.074+58.8226+477.137+58.6247+477.199+58.4268L478.528+54.9112L480.403+54.9112L477.653+61.8174L476.012+61.8174ZM485.518+59.6143L487.346+59.9268C487.117+60.5935+486.747+61.1039+486.237+61.4581C485.727+61.8018+485.096+61.9737+484.346+61.9737C483.138+61.9737+482.247+61.5831+481.674+60.8018C481.216+60.1664+480.987+59.3695+480.987+58.4112C480.987+57.2653+481.284+56.3695+481.878+55.7237C482.482+55.0778+483.242+54.7549+484.159+54.7549C485.19+54.7549+486.003+55.0935+486.596+55.7706C487.19+56.4476+487.471+57.4893+487.44+58.8956L482.862+58.8956C482.872+59.4372+483.018+59.8591+483.299+60.1612C483.581+60.4633+483.935+60.6143+484.362+60.6143C484.643+60.6143+484.883+60.5362+485.081+60.3799C485.279+60.2237+485.424+59.9685+485.518+59.6143ZM485.628+57.7706C485.617+57.2393+485.482+56.8383+485.221+56.5674C484.961+56.2862+484.643+56.1456+484.268+56.1456C483.872+56.1456+483.544+56.2914+483.284+56.5831C483.023+56.8747+482.893+57.2706+482.893+57.7706L485.628+57.7706ZM490.681+61.8174L488.853+61.8174L488.853+54.9112L490.556+54.9112L490.556+55.8956C490.847+55.4268+491.108+55.1195+491.337+54.9737C491.566+54.8278+491.832+54.7549+492.134+54.7549C492.55+54.7549+492.952+54.8695+493.337+55.0987L492.774+56.6924C492.462+56.4945+492.175+56.3956+491.915+56.3956C491.655+56.3956+491.436+56.4685+491.259+56.6143C491.082+56.7497+490.941+57.0049+490.837+57.3799C490.733+57.7445+490.681+58.5101+490.681+59.6768L490.681+61.8174ZM498.117+59.6143L499.946+59.9268C499.716+60.5935+499.347+61.1039+498.836+61.4581C498.326+61.8018+497.696+61.9737+496.946+61.9737C495.737+61.9737+494.847+61.5831+494.274+60.8018C493.815+60.1664+493.586+59.3695+493.586+58.4112C493.586+57.2653+493.883+56.3695+494.477+55.7237C495.081+55.0778+495.841+54.7549+496.758+54.7549C497.789+54.7549+498.602+55.0935+499.196+55.7706C499.789+56.4476+500.071+57.4893+500.039+58.8956L495.461+58.8956C495.472+59.4372+495.617+59.8591+495.899+60.1612C496.18+60.4633+496.534+60.6143+496.961+60.6143C497.242+60.6143+497.482+60.5362+497.68+60.3799C497.878+60.2237+498.024+59.9685+498.117+59.6143ZM498.227+57.7706C498.216+57.2393+498.081+56.8383+497.821+56.5674C497.56+56.2862+497.242+56.1456+496.867+56.1456C496.472+56.1456+496.143+56.2914+495.883+56.5831C495.623+56.8747+495.492+57.2706+495.492+57.7706L498.227+57.7706ZM507.874+61.8174L506.171+61.8174L506.171+60.8018C505.889+61.1976+505.556+61.4945+505.171+61.6924C504.785+61.8799+504.4+61.9737+504.014+61.9737C503.223+61.9737+502.54+61.656+501.967+61.0206C501.405+60.3747+501.124+59.4789+501.124+58.3331C501.124+57.1664+501.4+56.281+501.952+55.6768C502.504+55.0622+503.202+54.7549+504.046+54.7549C504.816+54.7549+505.483+55.0726+506.046+55.7081L506.046+52.2706L507.874+52.2706L507.874+61.8174ZM502.999+58.2081C502.999+58.9476+503.098+59.4841+503.296+59.8174C503.587+60.2966+503.999+60.5362+504.53+60.5362C504.957+60.5362+505.316+60.3591+505.608+60.0049C505.9+59.6403+506.046+59.1039+506.046+58.3956C506.046+57.5935+505.9+57.0206+505.608+56.6768C505.327+56.3226+504.962+56.1456+504.514+56.1456C504.087+56.1456+503.728+56.3174+503.436+56.6612C503.144+57.0049+502.999+57.5206+502.999+58.2081Z" opacity="1" fill="#38761d"/>
<path d="M381.777+80.6601L538.627+80.6601L538.627+105.762L381.777+105.762L381.777+80.6601Z" fill-opacity="0" fill="#000000" opacity="1"/>
<path d="M444.004+104.69L444.004+110.971L420.285+110.971C420.535+108.596+421.301+106.346+422.582+104.221C423.874+102.086+426.416+99.2629+430.207+95.7525C433.259+92.9088+435.129+90.9817+435.817+89.9713C436.744+88.5754+437.207+87.1952+437.207+85.8306C437.207+84.3202+436.801+83.1588+435.988+82.3463C435.186+81.5338+434.067+81.1275+432.629+81.1275C431.223+81.1275+430.098+81.5546+429.254+82.4088C428.421+83.2525+427.942+84.664+427.817+86.6431L421.067+85.9713C421.473+82.2421+422.733+79.5702+424.848+77.9556C426.973+76.3306+429.624+75.5181+432.801+75.5181C436.291+75.5181+439.03+76.4608+441.02+78.3463C443.009+80.2213+444.004+82.5546+444.004+85.3463C444.004+86.9296+443.718+88.44+443.145+89.8775C442.582+91.315+441.681+92.8202+440.442+94.3931C439.619+95.4452+438.14+96.9504+436.004+98.9088C433.869+100.867+432.515+102.169+431.942+102.815C431.379+103.45+430.921+104.075+430.567+104.69L444.004+104.69ZM460.016+75.5181C463.443+75.5181+466.12+76.7369+468.047+79.1744C470.339+82.0702+471.485+86.8619+471.485+93.5494C471.485+100.237+470.329+105.039+468.016+107.956C466.11+110.372+463.443+111.581+460.016+111.581C456.579+111.581+453.808+110.258+451.704+107.612C449.61+104.966+448.563+100.258+448.563+93.4869C448.563+86.8411+449.719+82.0546+452.032+79.1275C453.938+76.7213+456.6+75.5181+460.016+75.5181ZM460.016+81.1275C459.204+81.1275+458.475+81.3879+457.829+81.9088C457.183+82.4296+456.683+83.3671+456.329+84.7213C455.87+86.4713+455.641+89.414+455.641+93.5494C455.641+97.6952+455.85+100.544+456.266+102.096C456.683+103.648+457.209+104.68+457.844+105.19C458.48+105.7+459.204+105.956+460.016+105.956C460.839+105.956+461.568+105.695+462.204+105.174C462.85+104.654+463.35+103.721+463.704+102.378C464.172+100.638+464.407+97.6952+464.407+93.5494C464.407+89.414+464.198+86.5702+463.782+85.0181C463.365+83.4661+462.839+82.4296+462.204+81.9088C461.568+81.3879+460.839+81.1275+460.016+81.1275ZM493.325+110.971L486.56+110.971L486.56+85.4713C484.091+87.7838+481.179+89.4921+477.825+90.5963L477.825+84.4556C479.586+83.8723+481.502+82.7733+483.575+81.1588C485.648+79.5442+487.07+77.664+487.841+75.5181L493.325+75.5181L493.325+110.971Z" opacity="1" fill="#38761d"/>
<path d="M93.7825+162.734L250.633+162.734L250.633+187.836L93.7825+187.836L93.7825+162.734Z" fill-opacity="0" fill="#000000" opacity="1"/>
<path d="M113.18+174.987L117.009+174.987C117.759+174.987+118.316+175.018+118.68+175.081C119.055+175.143+119.389+175.279+119.68+175.487C119.972+175.685+120.217+175.95+120.415+176.284C120.613+176.617+120.712+176.987+120.712+177.393C120.712+177.841+120.592+178.253+120.352+178.628C120.113+179.003+119.785+179.284+119.368+179.471C119.951+179.638+120.399+179.924+120.712+180.331C121.024+180.737+121.18+181.216+121.18+181.768C121.18+182.206+121.076+182.628+120.868+183.034C120.67+183.44+120.394+183.768+120.04+184.018C119.696+184.258+119.269+184.409+118.759+184.471C118.436+184.503+117.66+184.523+116.43+184.534L113.18+184.534L113.18+174.987ZM115.118+176.581L115.118+178.784L116.384+178.784C117.134+178.784+117.597+178.773+117.774+178.753C118.108+178.711+118.368+178.596+118.555+178.409C118.743+178.221+118.837+177.976+118.837+177.674C118.837+177.372+118.753+177.133+118.587+176.956C118.43+176.768+118.191+176.654+117.868+176.612C117.68+176.591+117.134+176.581+116.227+176.581L115.118+176.581ZM115.118+180.378L115.118+182.924L116.899+182.924C117.597+182.924+118.035+182.904+118.212+182.862C118.503+182.81+118.738+182.685+118.915+182.487C119.092+182.289+119.18+182.018+119.18+181.674C119.18+181.393+119.113+181.154+118.977+180.956C118.842+180.747+118.639+180.601+118.368+180.518C118.108+180.424+117.54+180.378+116.665+180.378L115.118+180.378ZM121.931+177.628L123.868+177.628L125.524+182.534L127.134+177.628L129.04+177.628L126.587+184.268L126.165+185.471C125.998+185.878+125.842+186.185+125.696+186.393C125.55+186.612+125.384+186.784+125.196+186.909C125.009+187.044+124.774+187.148+124.493+187.221C124.222+187.305+123.915+187.346+123.571+187.346C123.217+187.346+122.873+187.305+122.54+187.221L122.368+185.799C122.66+185.851+122.92+185.878+123.149+185.878C123.576+185.878+123.889+185.753+124.087+185.503C124.295+185.253+124.451+184.935+124.556+184.549L121.931+177.628ZM133.452+182.003L135.218+181.784C135.28+182.242+135.432+182.591+135.671+182.831C135.921+183.06+136.223+183.174+136.577+183.174C136.952+183.174+137.27+183.034+137.53+182.753C137.791+182.461+137.921+182.075+137.921+181.596C137.921+181.138+137.796+180.773+137.546+180.503C137.296+180.232+136.994+180.096+136.64+180.096C136.411+180.096+136.129+180.143+135.796+180.237L135.999+178.737C136.499+178.758+136.879+178.654+137.14+178.424C137.4+178.195+137.53+177.893+137.53+177.518C137.53+177.195+137.432+176.94+137.234+176.753C137.046+176.555+136.796+176.456+136.484+176.456C136.171+176.456+135.9+176.565+135.671+176.784C135.452+177.003+135.322+177.32+135.28+177.737L133.593+177.44C133.708+176.867+133.879+176.409+134.109+176.065C134.348+175.721+134.682+175.45+135.109+175.253C135.536+175.055+136.01+174.956+136.53+174.956C137.426+174.956+138.145+175.242+138.687+175.815C139.135+176.284+139.359+176.815+139.359+177.409C139.359+178.242+138.9+178.909+137.984+179.409C138.536+179.523+138.973+179.784+139.296+180.19C139.629+180.596+139.796+181.091+139.796+181.674C139.796+182.508+139.489+183.221+138.874+183.815C138.26+184.398+137.499+184.69+136.593+184.69C135.728+184.69+135.01+184.445+134.437+183.956C133.874+183.456+133.546+182.805+133.452+182.003ZM141.334+184.534L141.334+174.987L144.427+174.987C145.594+174.987+146.36+175.039+146.724+175.143C147.266+175.279+147.719+175.586+148.084+176.065C148.459+176.544+148.646+177.164+148.646+177.924C148.646+178.508+148.537+179.003+148.318+179.409C148.11+179.805+147.839+180.117+147.505+180.346C147.183+180.575+146.854+180.726+146.521+180.799C146.052+180.893+145.386+180.94+144.521+180.94L143.255+180.94L143.255+184.534L141.334+184.534ZM143.255+176.612L143.255+179.315L144.318+179.315C145.078+179.315+145.584+179.268+145.834+179.174C146.094+179.07+146.297+178.914+146.443+178.706C146.589+178.487+146.662+178.237+146.662+177.956C146.662+177.612+146.558+177.325+146.349+177.096C146.151+176.867+145.896+176.726+145.584+176.674C145.354+176.633+144.891+176.612+144.193+176.612L143.255+176.612ZM150.27+184.534L150.27+175.065L152.208+175.065L152.208+182.924L156.989+182.924L156.989+184.534L150.27+184.534ZM163.186+184.534L160.905+174.987L162.874+174.987L164.311+181.549L166.061+174.987L168.342+174.987L170.014+181.659L171.483+174.987L173.421+174.987L171.108+184.534L169.061+184.534L167.171+177.409L165.264+184.534L163.186+184.534ZM175.271+179.737L173.599+179.424C173.787+178.758+174.11+178.268+174.568+177.956C175.026+177.633+175.703+177.471+176.599+177.471C177.412+177.471+178.016+177.57+178.412+177.768C178.818+177.956+179.099+178.2+179.255+178.503C179.422+178.794+179.505+179.336+179.505+180.128L179.49+182.268C179.49+182.872+179.516+183.32+179.568+183.612C179.63+183.893+179.745+184.2+179.912+184.534L178.099+184.534C178.047+184.409+177.99+184.226+177.927+183.987C177.896+183.883+177.87+183.815+177.849+183.784C177.537+184.086+177.203+184.315+176.849+184.471C176.495+184.617+176.115+184.69+175.709+184.69C175+184.69+174.438+184.497+174.021+184.112C173.615+183.726+173.412+183.237+173.412+182.643C173.412+182.258+173.505+181.914+173.693+181.612C173.88+181.299+174.141+181.065+174.474+180.909C174.818+180.742+175.308+180.596+175.943+180.471C176.797+180.315+177.386+180.164+177.709+180.018L177.709+179.846C177.709+179.492+177.62+179.242+177.443+179.096C177.276+178.94+176.953+178.862+176.474+178.862C176.151+178.862+175.896+178.93+175.709+179.065C175.532+179.19+175.386+179.414+175.271+179.737ZM177.709+181.221C177.479+181.294+177.11+181.388+176.599+181.503C176.089+181.607+175.755+181.711+175.599+181.815C175.36+181.982+175.24+182.195+175.24+182.456C175.24+182.716+175.334+182.94+175.521+183.128C175.719+183.315+175.964+183.409+176.255+183.409C176.589+183.409+176.907+183.299+177.209+183.081C177.427+182.914+177.573+182.711+177.646+182.471C177.688+182.315+177.709+182.018+177.709+181.581L177.709+181.221ZM183.059+184.534L181.23+184.534L181.23+177.628L182.934+177.628L182.934+178.612C183.225+178.143+183.486+177.836+183.715+177.69C183.944+177.544+184.21+177.471+184.512+177.471C184.928+177.471+185.329+177.586+185.715+177.815L185.152+179.409C184.84+179.211+184.553+179.112+184.293+179.112C184.033+179.112+183.814+179.185+183.637+179.331C183.46+179.466+183.319+179.721+183.215+180.096C183.111+180.461+183.059+181.226+183.059+182.393L183.059+184.534ZM190.495+182.331L192.323+182.643C192.094+183.31+191.725+183.82+191.214+184.174C190.704+184.518+190.073+184.69+189.323+184.69C188.115+184.69+187.225+184.299+186.652+183.518C186.193+182.883+185.964+182.086+185.964+181.128C185.964+179.982+186.261+179.086+186.855+178.44C187.459+177.794+188.219+177.471+189.136+177.471C190.167+177.471+190.98+177.81+191.573+178.487C192.167+179.164+192.448+180.206+192.417+181.612L187.839+181.612C187.85+182.154+187.995+182.575+188.277+182.878C188.558+183.18+188.912+183.331+189.339+183.331C189.62+183.331+189.86+183.253+190.058+183.096C190.256+182.94+190.402+182.685+190.495+182.331ZM190.605+180.487C190.594+179.956+190.459+179.555+190.198+179.284C189.938+179.003+189.62+178.862+189.245+178.862C188.85+178.862+188.521+179.008+188.261+179.299C188.001+179.591+187.87+179.987+187.87+180.487L190.605+180.487ZM195.736+174.987L195.736+178.503C196.319+177.815+197.022+177.471+197.845+177.471C198.272+177.471+198.653+177.549+198.986+177.706C199.33+177.862+199.585+178.06+199.752+178.299C199.918+178.539+200.033+178.81+200.095+179.112C200.168+179.404+200.205+179.862+200.205+180.487L200.205+184.534L198.377+184.534L198.377+180.878C198.377+180.159+198.34+179.7+198.267+179.503C198.194+179.305+198.069+179.148+197.892+179.034C197.715+178.919+197.496+178.862+197.236+178.862C196.934+178.862+196.663+178.94+196.423+179.096C196.184+179.242+196.007+179.466+195.892+179.768C195.788+180.06+195.736+180.492+195.736+181.065L195.736+184.534L193.908+184.534L193.908+174.987L195.736+174.987ZM201.627+180.987C201.627+180.372+201.778+179.784+202.08+179.221C202.383+178.648+202.804+178.216+203.346+177.924C203.898+177.622+204.513+177.471+205.19+177.471C206.231+177.471+207.086+177.81+207.752+178.487C208.429+179.164+208.768+180.023+208.768+181.065C208.768+182.107+208.429+182.971+207.752+183.659C207.075+184.346+206.226+184.69+205.205+184.69C204.57+184.69+203.966+184.549+203.393+184.268C202.82+183.976+202.383+183.555+202.08+183.003C201.778+182.45+201.627+181.779+201.627+180.987ZM203.502+181.081C203.502+181.768+203.664+182.294+203.987+182.659C204.32+183.023+204.721+183.206+205.19+183.206C205.669+183.206+206.07+183.023+206.393+182.659C206.716+182.294+206.877+181.763+206.877+181.065C206.877+180.388+206.716+179.867+206.393+179.503C206.07+179.138+205.669+178.956+205.19+178.956C204.721+178.956+204.32+179.138+203.987+179.503C203.664+179.867+203.502+180.393+203.502+181.081ZM214.737+184.534L214.737+183.503C214.487+183.867+214.154+184.159+213.737+184.378C213.331+184.586+212.904+184.69+212.456+184.69C211.987+184.69+211.566+184.591+211.191+184.393C210.826+184.185+210.56+183.898+210.394+183.534C210.237+183.159+210.159+182.648+210.159+182.003L210.159+177.628L211.987+177.628L211.987+180.799C211.987+181.768+212.019+182.362+212.081+182.581C212.154+182.799+212.279+182.976+212.456+183.112C212.633+183.237+212.857+183.299+213.128+183.299C213.441+183.299+213.722+183.216+213.972+183.049C214.222+182.872+214.388+182.659+214.472+182.409C214.566+182.148+214.612+181.523+214.612+180.534L214.612+177.628L216.441+177.628L216.441+184.534L214.737+184.534ZM217.691+182.565L219.519+182.284C219.603+182.638+219.764+182.909+220.004+183.096C220.243+183.273+220.577+183.362+221.004+183.362C221.473+183.362+221.827+183.279+222.066+183.112C222.233+182.987+222.316+182.825+222.316+182.628C222.316+182.482+222.269+182.362+222.176+182.268C222.092+182.185+221.889+182.107+221.566+182.034C220.098+181.711+219.165+181.414+218.769+181.143C218.217+180.768+217.941+180.247+217.941+179.581C217.941+178.987+218.176+178.487+218.644+178.081C219.124+177.674+219.858+177.471+220.848+177.471C221.795+177.471+222.499+177.628+222.957+177.94C223.426+178.242+223.743+178.695+223.91+179.299L222.191+179.612C222.118+179.341+221.978+179.138+221.769+179.003C221.561+178.857+221.264+178.784+220.879+178.784C220.4+178.784+220.056+178.851+219.848+178.987C219.712+179.081+219.644+179.2+219.644+179.346C219.644+179.482+219.707+179.596+219.832+179.69C219.988+179.805+220.551+179.976+221.519+180.206C222.499+180.424+223.186+180.695+223.582+181.018C223.957+181.341+224.144+181.794+224.144+182.378C224.144+183.013+223.879+183.56+223.348+184.018C222.827+184.466+222.045+184.69+221.004+184.69C220.066+184.69+219.321+184.503+218.769+184.128C218.217+183.742+217.858+183.221+217.691+182.565ZM229.744+182.331L231.573+182.643C231.343+183.31+230.974+183.82+230.463+184.174C229.953+184.518+229.323+184.69+228.573+184.69C227.364+184.69+226.474+184.299+225.901+183.518C225.442+182.883+225.213+182.086+225.213+181.128C225.213+179.982+225.51+179.086+226.104+178.44C226.708+177.794+227.468+177.471+228.385+177.471C229.416+177.471+230.229+177.81+230.823+178.487C231.416+179.164+231.698+180.206+231.666+181.612L227.088+181.612C227.099+182.154+227.244+182.575+227.526+182.878C227.807+183.18+228.161+183.331+228.588+183.331C228.869+183.331+229.109+183.253+229.307+183.096C229.505+182.94+229.651+182.685+229.744+182.331ZM229.854+180.487C229.843+179.956+229.708+179.555+229.448+179.284C229.187+179.003+228.869+178.862+228.494+178.862C228.099+178.862+227.77+179.008+227.51+179.299C227.25+179.591+227.119+179.987+227.119+180.487L229.854+180.487Z" opacity="1" fill="#e69138"/>
<path d="M381.777+162.734L538.627+162.734L538.627+187.836L381.777+187.836L381.777+162.734Z" fill-opacity="0" fill="#000000" opacity="1"/>
<path d="M401.175+174.987L405.003+174.987C405.753+174.987+406.31+175.018+406.675+175.081C407.05+175.143+407.383+175.279+407.675+175.487C407.966+175.685+408.211+175.95+408.409+176.284C408.607+176.617+408.706+176.987+408.706+177.393C408.706+177.841+408.586+178.253+408.347+178.628C408.107+179.003+407.779+179.284+407.362+179.471C407.945+179.638+408.393+179.924+408.706+180.331C409.018+180.737+409.175+181.216+409.175+181.768C409.175+182.206+409.07+182.628+408.862+183.034C408.664+183.44+408.388+183.768+408.034+184.018C407.69+184.258+407.263+184.409+406.753+184.471C406.43+184.503+405.654+184.523+404.425+184.534L401.175+184.534L401.175+174.987ZM403.112+176.581L403.112+178.784L404.378+178.784C405.128+178.784+405.591+178.773+405.768+178.753C406.102+178.711+406.362+178.596+406.55+178.409C406.737+178.221+406.831+177.976+406.831+177.674C406.831+177.372+406.748+177.133+406.581+176.956C406.425+176.768+406.185+176.654+405.862+176.612C405.675+176.591+405.128+176.581+404.222+176.581L403.112+176.581ZM403.112+180.378L403.112+182.924L404.893+182.924C405.591+182.924+406.029+182.904+406.206+182.862C406.498+182.81+406.732+182.685+406.909+182.487C407.086+182.289+407.175+182.018+407.175+181.674C407.175+181.393+407.107+181.154+406.972+180.956C406.836+180.747+406.633+180.601+406.362+180.518C406.102+180.424+405.534+180.378+404.659+180.378L403.112+180.378ZM409.925+177.628L411.862+177.628L413.519+182.534L415.128+177.628L417.034+177.628L414.581+184.268L414.159+185.471C413.993+185.878+413.836+186.185+413.69+186.393C413.545+186.612+413.378+186.784+413.19+186.909C413.003+187.044+412.769+187.148+412.487+187.221C412.216+187.305+411.909+187.346+411.565+187.346C411.211+187.346+410.868+187.305+410.534+187.221L410.362+185.799C410.654+185.851+410.914+185.878+411.144+185.878C411.571+185.878+411.883+185.753+412.081+185.503C412.289+185.253+412.446+184.935+412.55+184.549L409.925+177.628ZM421.447+182.003L423.212+181.784C423.275+182.242+423.426+182.591+423.665+182.831C423.915+183.06+424.217+183.174+424.572+183.174C424.947+183.174+425.264+183.034+425.525+182.753C425.785+182.461+425.915+182.075+425.915+181.596C425.915+181.138+425.79+180.773+425.54+180.503C425.29+180.232+424.988+180.096+424.634+180.096C424.405+180.096+424.124+180.143+423.79+180.237L423.993+178.737C424.493+178.758+424.874+178.654+425.134+178.424C425.394+178.195+425.525+177.893+425.525+177.518C425.525+177.195+425.426+176.94+425.228+176.753C425.04+176.555+424.79+176.456+424.478+176.456C424.165+176.456+423.894+176.565+423.665+176.784C423.447+177.003+423.316+177.32+423.275+177.737L421.587+177.44C421.702+176.867+421.874+176.409+422.103+176.065C422.342+175.721+422.676+175.45+423.103+175.253C423.53+175.055+424.004+174.956+424.525+174.956C425.42+174.956+426.139+175.242+426.681+175.815C427.129+176.284+427.353+176.815+427.353+177.409C427.353+178.242+426.894+178.909+425.978+179.409C426.53+179.523+426.967+179.784+427.29+180.19C427.624+180.596+427.79+181.091+427.79+181.674C427.79+182.508+427.483+183.221+426.868+183.815C426.254+184.398+425.493+184.69+424.587+184.69C423.723+184.69+423.004+184.445+422.431+183.956C421.868+183.456+421.54+182.805+421.447+182.003ZM429.328+184.534L429.328+174.987L432.422+174.987C433.588+174.987+434.354+175.039+434.718+175.143C435.26+175.279+435.713+175.586+436.078+176.065C436.453+176.544+436.64+177.164+436.64+177.924C436.64+178.508+436.531+179.003+436.312+179.409C436.104+179.805+435.833+180.117+435.5+180.346C435.177+180.575+434.849+180.726+434.515+180.799C434.047+180.893+433.38+180.94+432.515+180.94L431.25+180.94L431.25+184.534L429.328+184.534ZM431.25+176.612L431.25+179.315L432.312+179.315C433.073+179.315+433.578+179.268+433.828+179.174C434.088+179.07+434.291+178.914+434.437+178.706C434.583+178.487+434.656+178.237+434.656+177.956C434.656+177.612+434.552+177.325+434.343+177.096C434.145+176.867+433.89+176.726+433.578+176.674C433.349+176.633+432.885+176.612+432.187+176.612L431.25+176.612ZM438.264+184.534L438.264+175.065L440.202+175.065L440.202+182.924L444.983+182.924L444.983+184.534L438.264+184.534ZM451.18+184.534L448.899+174.987L450.868+174.987L452.305+181.549L454.055+174.987L456.337+174.987L458.008+181.659L459.477+174.987L461.415+174.987L459.102+184.534L457.055+184.534L455.165+177.409L453.258+184.534L451.18+184.534ZM463.265+179.737L461.593+179.424C461.781+178.758+462.104+178.268+462.562+177.956C463.02+177.633+463.698+177.471+464.593+177.471C465.406+177.471+466.01+177.57+466.406+177.768C466.812+177.956+467.093+178.2+467.25+178.503C467.416+178.794+467.5+179.336+467.5+180.128L467.484+182.268C467.484+182.872+467.51+183.32+467.562+183.612C467.625+183.893+467.739+184.2+467.906+184.534L466.093+184.534C466.041+184.409+465.984+184.226+465.922+183.987C465.89+183.883+465.864+183.815+465.843+183.784C465.531+184.086+465.198+184.315+464.843+184.471C464.489+184.617+464.109+184.69+463.703+184.69C462.994+184.69+462.432+184.497+462.015+184.112C461.609+183.726+461.406+183.237+461.406+182.643C461.406+182.258+461.5+181.914+461.687+181.612C461.875+181.299+462.135+181.065+462.468+180.909C462.812+180.742+463.302+180.596+463.937+180.471C464.791+180.315+465.38+180.164+465.703+180.018L465.703+179.846C465.703+179.492+465.614+179.242+465.437+179.096C465.27+178.94+464.948+178.862+464.468+178.862C464.145+178.862+463.89+178.93+463.703+179.065C463.526+179.19+463.38+179.414+463.265+179.737ZM465.703+181.221C465.474+181.294+465.104+181.388+464.593+181.503C464.083+181.607+463.75+181.711+463.593+181.815C463.354+181.982+463.234+182.195+463.234+182.456C463.234+182.716+463.328+182.94+463.515+183.128C463.713+183.315+463.958+183.409+464.25+183.409C464.583+183.409+464.901+183.299+465.203+183.081C465.422+182.914+465.567+182.711+465.64+182.471C465.682+182.315+465.703+182.018+465.703+181.581L465.703+181.221ZM471.053+184.534L469.225+184.534L469.225+177.628L470.928+177.628L470.928+178.612C471.219+178.143+471.48+177.836+471.709+177.69C471.938+177.544+472.204+177.471+472.506+177.471C472.923+177.471+473.324+177.586+473.709+177.815L473.146+179.409C472.834+179.211+472.548+179.112+472.287+179.112C472.027+179.112+471.808+179.185+471.631+179.331C471.454+179.466+471.313+179.721+471.209+180.096C471.105+180.461+471.053+181.226+471.053+182.393L471.053+184.534ZM478.49+182.331L480.318+182.643C480.088+183.31+479.719+183.82+479.208+184.174C478.698+184.518+478.068+184.69+477.318+184.69C476.109+184.69+475.219+184.299+474.646+183.518C474.187+182.883+473.958+182.086+473.958+181.128C473.958+179.982+474.255+179.086+474.849+178.44C475.453+177.794+476.213+177.471+477.13+177.471C478.161+177.471+478.974+177.81+479.568+178.487C480.161+179.164+480.443+180.206+480.411+181.612L475.833+181.612C475.844+182.154+475.99+182.575+476.271+182.878C476.552+183.18+476.906+183.331+477.333+183.331C477.615+183.331+477.854+183.253+478.052+183.096C478.25+182.94+478.396+182.685+478.49+182.331ZM478.599+180.487C478.588+179.956+478.453+179.555+478.193+179.284C477.932+179.003+477.615+178.862+477.24+178.862C476.844+178.862+476.516+179.008+476.255+179.299C475.995+179.591+475.865+179.987+475.865+180.487L478.599+180.487ZM483.73+174.987L483.73+178.503C484.313+177.815+485.017+177.471+485.839+177.471C486.267+177.471+486.647+177.549+486.98+177.706C487.324+177.862+487.579+178.06+487.746+178.299C487.912+178.539+488.027+178.81+488.089+179.112C488.162+179.404+488.199+179.862+488.199+180.487L488.199+184.534L486.371+184.534L486.371+180.878C486.371+180.159+486.334+179.7+486.261+179.503C486.188+179.305+486.063+179.148+485.886+179.034C485.709+178.919+485.491+178.862+485.23+178.862C484.928+178.862+484.657+178.94+484.418+179.096C484.178+179.242+484.001+179.466+483.886+179.768C483.782+180.06+483.73+180.492+483.73+181.065L483.73+184.534L481.902+184.534L481.902+174.987L483.73+174.987ZM489.621+180.987C489.621+180.372+489.773+179.784+490.075+179.221C490.377+178.648+490.799+178.216+491.34+177.924C491.892+177.622+492.507+177.471+493.184+177.471C494.226+177.471+495.08+177.81+495.746+178.487C496.424+179.164+496.762+180.023+496.762+181.065C496.762+182.107+496.424+182.971+495.746+183.659C495.069+184.346+494.22+184.69+493.2+184.69C492.564+184.69+491.96+184.549+491.387+184.268C490.814+183.976+490.377+183.555+490.075+183.003C489.773+182.45+489.621+181.779+489.621+180.987ZM491.496+181.081C491.496+181.768+491.658+182.294+491.981+182.659C492.314+183.023+492.715+183.206+493.184+183.206C493.663+183.206+494.064+183.023+494.387+182.659C494.71+182.294+494.871+181.763+494.871+181.065C494.871+180.388+494.71+179.867+494.387+179.503C494.064+179.138+493.663+178.956+493.184+178.956C492.715+178.956+492.314+179.138+491.981+179.503C491.658+179.867+491.496+180.393+491.496+181.081ZM502.732+184.534L502.732+183.503C502.482+183.867+502.148+184.159+501.732+184.378C501.325+184.586+500.898+184.69+500.45+184.69C499.982+184.69+499.56+184.591+499.185+184.393C498.82+184.185+498.554+183.898+498.388+183.534C498.232+183.159+498.153+182.648+498.153+182.003L498.153+177.628L499.982+177.628L499.982+180.799C499.982+181.768+500.013+182.362+500.075+182.581C500.148+182.799+500.273+182.976+500.45+183.112C500.627+183.237+500.851+183.299+501.122+183.299C501.435+183.299+501.716+183.216+501.966+183.049C502.216+182.872+502.383+182.659+502.466+182.409C502.56+182.148+502.607+181.523+502.607+180.534L502.607+177.628L504.435+177.628L504.435+184.534L502.732+184.534ZM505.685+182.565L507.514+182.284C507.597+182.638+507.758+182.909+507.998+183.096C508.238+183.273+508.571+183.362+508.998+183.362C509.467+183.362+509.821+183.279+510.06+183.112C510.227+182.987+510.31+182.825+510.31+182.628C510.31+182.482+510.264+182.362+510.17+182.268C510.086+182.185+509.883+182.107+509.56+182.034C508.092+181.711+507.159+181.414+506.764+181.143C506.211+180.768+505.935+180.247+505.935+179.581C505.935+178.987+506.17+178.487+506.639+178.081C507.118+177.674+507.852+177.471+508.842+177.471C509.79+177.471+510.493+177.628+510.951+177.94C511.42+178.242+511.738+178.695+511.904+179.299L510.185+179.612C510.113+179.341+509.972+179.138+509.764+179.003C509.555+178.857+509.258+178.784+508.873+178.784C508.394+178.784+508.05+178.851+507.842+178.987C507.706+179.081+507.639+179.2+507.639+179.346C507.639+179.482+507.701+179.596+507.826+179.69C507.982+179.805+508.545+179.976+509.514+180.206C510.493+180.424+511.18+180.695+511.576+181.018C511.951+181.341+512.139+181.794+512.139+182.378C512.139+183.013+511.873+183.56+511.342+184.018C510.821+184.466+510.04+184.69+508.998+184.69C508.06+184.69+507.316+184.503+506.764+184.128C506.211+183.742+505.852+183.221+505.685+182.565ZM517.739+182.331L519.567+182.643C519.337+183.31+518.968+183.82+518.457+184.174C517.947+184.518+517.317+184.69+516.567+184.69C515.358+184.69+514.468+184.299+513.895+183.518C513.436+182.883+513.207+182.086+513.207+181.128C513.207+179.982+513.504+179.086+514.098+178.44C514.702+177.794+515.462+177.471+516.379+177.471C517.41+177.471+518.223+177.81+518.817+178.487C519.41+179.164+519.692+180.206+519.66+181.612L515.082+181.612C515.093+182.154+515.239+182.575+515.52+182.878C515.801+183.18+516.155+183.331+516.582+183.331C516.864+183.331+517.103+183.253+517.301+183.096C517.499+182.94+517.645+182.685+517.739+182.331ZM517.848+180.487C517.837+179.956+517.702+179.555+517.442+179.284C517.181+179.003+516.864+178.862+516.489+178.862C516.093+178.862+515.765+179.008+515.504+179.299C515.244+179.591+515.114+179.987+515.114+180.487L517.848+180.487Z" opacity="1" fill="#38761d"/>
<path d="M135.834+284.515L135.834+284.515C122.006+270.11+117.988+248.899+125.59+230.435C133.192+211.971+150.98+199.738+170.942+199.246L172.183+249.619L135.834+284.515Z" opacity="1" fill="#e69138"/>
<path stroke="#ffffff" stroke-width="2" d="M135.834+284.515L135.834+284.515C122.006+270.11+117.988+248.899+125.59+230.435C133.192+211.971+150.98+199.738+170.942+199.246L172.183+249.619L135.834+284.515Z" fill="none" stroke-linecap="butt" opacity="1" stroke-linejoin="miter"/>
<path d="M214.639+276.757C206.136+290.058+191.891+298.606+176.153+299.85C160.416+301.094+145.005+294.89+134.518+283.09L172.183+249.619L214.639+276.757Z" opacity="1" fill="#f6b26b"/>
<path stroke="#ffffff" stroke-width="2" d="M214.639+276.757C206.136+290.058+191.891+298.606+176.153+299.85C160.416+301.094+145.005+294.89+134.518+283.09L172.183+249.619L214.639+276.757Z" fill="none" stroke-linecap="butt" opacity="1" stroke-linejoin="miter"/>
<path d="M219.476+232.231C225.586+248.85+222.525+267.457+211.412+281.243L172.183+249.619L219.476+232.231Z" opacity="1" fill="#f9cb9c"/>
<path stroke="#ffffff" stroke-width="2" d="M219.476+232.231C225.586+248.85+222.525+267.457+211.412+281.243L172.183+249.619L219.476+232.231Z" fill="none" stroke-linecap="butt" opacity="1" stroke-linejoin="miter"/>
<path d="M170.777+199.25L170.777+199.25C195.971+198.547+217.81+216.567+221.903+241.437L172.183+249.619L170.777+199.25Z" opacity="1" fill="#fce5cd"/>
<path stroke="#ffffff" stroke-width="2" d="M170.777+199.25L170.777+199.25C195.971+198.547+217.81+216.567+221.903+241.437L172.183+249.619L170.777+199.25Z" fill="none" stroke-linecap="butt" opacity="1" stroke-linejoin="miter"/>
<path d="M409.79+249.306L409.79+249.306C409.959+222.083+431.721+199.917+458.936+199.246L460.177+249.619L409.79+249.306Z" opacity="1" fill="#38761d"/>
<path stroke="#ffffff" stroke-width="2" d="M409.79+249.306L409.79+249.306C409.959+222.083+431.721+199.917+458.936+199.246L460.177+249.619L409.79+249.306Z" fill="none" stroke-linecap="butt" opacity="1" stroke-linejoin="miter"/>
<path d="M423.992+284.684L423.992+284.684C414.819+275.218+409.72+262.533+409.79+249.351L460.177+249.619L423.992+284.684Z" opacity="1" fill="#93c47d"/>
<path stroke="#ffffff" stroke-width="2" d="M423.992+284.684L423.992+284.684C414.819+275.218+409.72+262.533+409.79+249.351L460.177+249.619L423.992+284.684Z" fill="none" stroke-linecap="butt" opacity="1" stroke-linejoin="miter"/>
<path d="M500.156+280.289L500.156+280.289C491.142+292.038+477.417+299.228+462.626+299.947C447.835+300.667+433.477+294.844+423.365+284.026L460.177+249.619L500.156+280.289Z" opacity="1" fill="#b6d7a8"/>
<path stroke="#ffffff" stroke-width="2" d="M500.156+280.289L500.156+280.289C491.142+292.038+477.417+299.228+462.626+299.947C447.835+300.667+433.477+294.844+423.365+284.026L460.177+249.619L500.156+280.289Z" fill="none" stroke-linecap="butt" opacity="1" stroke-linejoin="miter"/>
<path d="M458.771+199.25L458.771+199.25C478.884+198.689+497.404+210.147+505.879+228.397C514.353+246.647+511.157+268.189+497.75+283.193L460.177+249.619L458.771+199.25Z" opacity="1" fill="#d9ead3"/>
<path stroke="#ffffff" stroke-width="2" d="M458.771+199.25L458.771+199.25C478.884+198.689+497.404+210.147+505.879+228.397C514.353+246.647+511.157+268.189+497.75+283.193L460.177+249.619L458.771+199.25Z" fill="none" stroke-linecap="butt" opacity="1" stroke-linejoin="miter"/>
</g>
</g>
</svg>
