<?xml version="1.0" encoding="UTF-8" standalone="no"?> <!-- Created with Vectornator for iOS (http://vectornator.io/) --><!DOCTYPE svg PUBLIC "-//W3C//DTD SVG 1.1//EN" "http://www.w3.org/Graphics/SVG/1.1/DTD/svg11.dtd">
<svg height="100%" style="fill-rule:nonzero;clip-rule:evenodd;stroke-linecap:round;stroke-linejoin:round;" xmlns:xlink="http://www.w3.org/1999/xlink" xmlns="http://www.w3.org/2000/svg" xml:space="preserve" width="100%" xmlns:vectornator="http://vectornator.io" version="1.1" viewBox="0 0 572.756 540">
<metadata>
<vectornator:setting key="DimensionsVisible" value="1"/>
<vectornator:setting key="PencilOnly" value="0"/>
<vectornator:setting key="SnapToPoints" value="0"/>
<vectornator:setting key="OutlineMode" value="0"/>
<vectornator:setting key="RulersVisible" value="1"/>
<vectornator:setting key="CMYKEnabledKey" value="0"/>
<vectornator:setting key="SnapToEdges" value="0"/>
<vectornator:setting key="GuidesVisible" value="1"/>
<vectornator:setting key="DisplayWhiteBackground" value="0"/>
<vectornator:setting key="doHistoryDisabled" value="0"/>
<vectornator:setting key="TimeLapseWatermarkDisabled" value="0"/>
<vectornator:setting key="SnapToGuides" value="1"/>
<vectornator:setting key="Units" value="Points"/>
<vectornator:setting key="IsolateActiveLayer" value="0"/>
<vectornator:setting key="DynamicGuides" value="0"/>
<vectornator:setting key="SnapToGrid" value="0"/>
</metadata>
<defs/>
<g id="Untitled" vectornator:layerName="Untitled">
<g opacity="1">
<path d="M32.8821+77.2149L32.8821+77.2149C32.8821+71.6342+37.4061+67.1101+42.987+67.1101L529.769+67.1101C532.449+67.1101+535.019+68.1747+536.914+70.0698C538.809+71.9648+539.874+74.535+539.874+77.2149L539.874+464.785C539.874+470.366+535.35+474.89+529.769+474.89L42.987+474.89C37.4061+474.89+32.8821+470.366+32.8821+464.785L32.8821+77.2149Z" fill-rule="evenodd" fill="#ffffff" opacity="1"/>
<path d="M32.8821+75.2149L32.8821+75.2149C32.8821+69.6342+37.4061+65.1101+42.987+65.1101L529.769+65.1101C532.449+65.1101+535.019+66.1747+536.914+68.0698C538.809+69.9648+539.874+72.535+539.874+75.2149L539.874+462.785C539.874+468.366+535.35+472.89+529.769+472.89L42.987+472.89C37.4061+472.89+32.8821+468.366+32.8821+462.785L32.8821+75.2149Z" fill-rule="evenodd" fill="#ffffff" opacity="1"/>
<path d="M177.893+154.562L177.893+154.562C177.893+150.836+180.913+147.815+184.64+147.815L510.39+147.815C512.179+147.815+513.895+148.526+515.16+149.791C516.426+151.057+517.137+152.773+517.137+154.562L517.137+413.352C517.137+417.078+514.116+420.099+510.39+420.099L184.64+420.099C180.913+420.099+177.893+417.078+177.893+413.352L177.893+154.562Z" fill-rule="evenodd" fill="#434343" opacity="1"/>
<path d="M60.9521+257.451L60.9521+257.451C60.9521+254.972+62.961+252.963+65.4401+252.963L151.109+252.963C152.3+252.963+153.441+253.435+154.283+254.277C155.125+255.119+155.598+256.26+155.598+257.451L155.598+275.403C155.598+277.882+153.588+279.892+151.109+279.892L65.4401+279.892C62.961+279.892+60.9521+277.882+60.9521+275.403L60.9521+257.451Z" fill-rule="evenodd" fill="#999999" opacity="1"/>
<path d="M60.9521+152.3L60.9521+152.3C60.9521+149.821+62.961+147.812+65.4401+147.812L151.109+147.812C152.3+147.812+153.441+148.284+154.283+149.126C155.125+149.968+155.598+151.109+155.598+152.3L155.598+170.252C155.598+172.731+153.588+174.741+151.109+174.741L65.4401+174.741C62.961+174.741+60.9521+172.731+60.9521+170.252L60.9521+152.3Z" fill-rule="evenodd" fill="#999999" opacity="1"/>
<path d="M60.9521+187.35L60.9521+187.35C60.9521+184.871+62.961+182.862+65.4401+182.862L151.109+182.862C152.3+182.862+153.441+183.335+154.283+184.176C155.125+185.018+155.598+186.16+155.598+187.35L155.598+205.303C155.598+207.782+153.588+209.791+151.109+209.791L65.4401+209.791C62.961+209.791+60.9521+207.782+60.9521+205.303L60.9521+187.35Z" fill-rule="evenodd" fill="#999999" opacity="1"/>
<path d="M60.9521+222.4L60.9521+222.4C60.9521+219.922+62.961+217.912+65.4401+217.912L151.109+217.912C152.3+217.912+153.441+218.385+154.283+219.227C155.125+220.068+155.598+221.21+155.598+222.4L155.598+240.353C155.598+242.832+153.588+244.841+151.109+244.841L65.4401+244.841C62.961+244.841+60.9521+242.832+60.9521+240.353L60.9521+222.4Z" fill-rule="evenodd" fill="#999999" opacity="1"/>
<path d="M60.9521+292.501L60.9521+292.501C60.9521+290.022+62.961+288.013+65.4401+288.013L151.109+288.013C152.3+288.013+153.441+288.486+154.283+289.327C155.125+290.169+155.598+291.311+155.598+292.501L155.598+310.454C155.598+312.933+153.588+314.942+151.109+314.942L65.4401+314.942C62.961+314.942+60.9521+312.933+60.9521+310.454L60.9521+292.501Z" fill-rule="evenodd" fill="#9fc5e8" opacity="1"/>
<path d="M60.9521+327.551L60.9521+327.551C60.9521+325.073+62.961+323.063+65.4401+323.063L151.109+323.063C152.3+323.063+153.441+323.536+154.283+324.378C155.125+325.219+155.598+326.361+155.598+327.551L155.598+345.504C155.598+347.983+153.588+349.992+151.109+349.992L65.4401+349.992C62.961+349.992+60.9521+347.983+60.9521+345.504L60.9521+327.551Z" fill-rule="evenodd" fill="#9fc5e8" opacity="1"/>
<path d="M60.9521+362.602L60.9521+362.602C60.9521+360.123+62.961+358.114+65.4401+358.114L151.109+358.114C152.3+358.114+153.441+358.586+154.283+359.428C155.125+360.27+155.598+361.411+155.598+362.602L155.598+380.554C155.598+383.033+153.588+385.043+151.109+385.043L65.4401+385.043C62.961+385.043+60.9521+383.033+60.9521+380.554L60.9521+362.602Z" fill-rule="evenodd" fill="#9fc5e8" opacity="1"/>
<path d="M60.9521+397.652L60.9521+397.652C60.9521+395.173+62.961+393.164+65.4401+393.164L151.109+393.164C152.3+393.164+153.441+393.637+154.283+394.478C155.125+395.32+155.598+396.462+155.598+397.652L155.598+415.605C155.598+418.084+153.588+420.093+151.109+420.093L65.4401+420.093C62.961+420.093+60.9521+418.084+60.9521+415.605L60.9521+397.652Z" fill-rule="evenodd" fill="#9fc5e8" opacity="1"/>
<path d="M56.1281+94.2576L56.1281+94.2576C56.1281+88.0261+61.0961+82.9744+67.2241+82.9744L67.2241+82.9744C70.166+82.9744+72.988+84.1632+75.0691+86.2792C77.1501+88.3952+78.3191+91.2651+78.3191+94.2576L78.3191+94.2576C78.3191+100.489+73.351+105.541+67.2241+105.541L67.2241+105.541C61.0961+105.541+56.1281+100.489+56.1281+94.2576Z" fill-rule="evenodd" fill="#ff3b46" opacity="1"/>
<path d="M88.446+94.2576L88.446+94.2576C88.446+88.0261+93.4131+82.9744+99.541+82.9744L99.541+82.9744C102.484+82.9744+105.306+84.1632+107.387+86.2792C109.468+88.3952+110.637+91.2651+110.637+94.2576L110.637+94.2576C110.637+100.489+105.669+105.541+99.541+105.541L99.541+105.541C93.4131+105.541+88.446+100.489+88.446+94.2576Z" fill-rule="evenodd" fill="#ffbf00" opacity="1"/>
<path d="M120.763+94.2576L120.763+94.2576C120.763+88.0261+125.731+82.9744+131.859+82.9744L131.859+82.9744C134.802+82.9744+137.624+84.1632+139.704+86.2792C141.785+88.3952+142.954+91.2651+142.954+94.2576L142.954+94.2576C142.954+100.489+137.987+105.541+131.859+105.541L131.859+105.541C125.731+105.541+120.763+100.489+120.763+94.2576Z" fill-rule="evenodd" fill="#00dc43" opacity="1"/>
<path d="M204.633+332.875L228.57+332.875L228.57+404.749L204.633+404.749L204.633+332.875Z" fill-rule="evenodd" fill="#e69138" opacity="1"/>
<path d="M204.633+261.003L228.57+261.003L228.57+332.877L204.633+332.877L204.633+261.003Z" fill-rule="evenodd" fill="#cc4125" opacity="1"/>
<path d="M245.795+291.713L269.732+291.713L269.732+348.248L245.795+348.248L245.795+291.713Z" fill-rule="evenodd" fill="#e69138" opacity="1"/>
<path d="M245.795+235.196L269.732+235.196L269.732+291.731L245.795+291.731L245.795+235.196Z" fill-rule="evenodd" fill="#cc4125" opacity="1"/>
<path d="M245.795+348.23L269.732+348.23L269.732+404.765L245.795+404.765L245.795+348.23Z" fill-rule="evenodd" fill="#ffd966" opacity="1"/>
<path d="M286.957+329.391L310.894+329.391L310.894+367.091L286.957+367.091L286.957+329.391Z" fill-rule="evenodd" fill="#e69138" opacity="1"/>
<path d="M286.957+291.713L310.894+291.713L310.894+329.414L286.957+329.414L286.957+291.713Z" fill-rule="evenodd" fill="#cc4125" opacity="1"/>
<path d="M286.957+367.068L310.894+367.068L310.894+404.769L286.957+404.769L286.957+367.068Z" fill-rule="evenodd" fill="#ffd966" opacity="1"/>
<path d="M328.119+269.007L352.056+269.007L352.056+336.881L328.119+336.881L328.119+269.007Z" fill-rule="evenodd" fill="#e69138" opacity="1"/>
<path d="M328.119+201.137L352.056+201.137L352.056+269.011L328.119+269.011L328.119+201.137Z" fill-rule="evenodd" fill="#cc4125" opacity="1"/>
<path d="M328.119+336.877L352.056+336.877L352.056+404.751L328.119+404.751L328.119+336.877Z" fill-rule="evenodd" fill="#ffd966" opacity="1"/>
<path d="M369.281+303.555L393.218+303.555L393.218+354.138L369.281+354.138L369.281+303.555Z" fill-rule="evenodd" fill="#e69138" opacity="1"/>
<path d="M369.281+201.137L393.218+201.137L393.218+303.562L369.281+303.562L369.281+201.137Z" fill-rule="evenodd" fill="#cc4125" opacity="1"/>
<path d="M369.281+354.149L393.218+354.149L393.218+404.732L369.281+404.732L369.281+354.149Z" fill-rule="evenodd" fill="#ffd966" opacity="1"/>
<path d="M410.443+235.006L434.38+235.006L434.38+251.73L410.443+251.73L410.443+235.006Z" fill-rule="evenodd" fill="#e69138" opacity="1"/>
<path d="M410.443+201.137L434.38+201.137L434.38+235.027L410.443+235.027L410.443+201.137Z" fill-rule="evenodd" fill="#cc4125" opacity="1"/>
<path d="M410.443+251.736L434.38+251.736L434.38+404.744L410.443+404.744L410.443+251.736Z" fill-rule="evenodd" fill="#ffd966" opacity="1"/>
<path d="M451.605+291.588L475.542+291.588L475.542+302.706L451.605+302.706L451.605+291.588Z" fill-rule="evenodd" fill="#e69138" opacity="1"/>
<path d="M451.605+269.008L475.542+269.008L475.542+291.559L451.605+291.559L451.605+269.008Z" fill-rule="evenodd" fill="#cc4125" opacity="1"/>
<path d="M451.605+302.742L475.542+302.742L475.542+404.757L451.605+404.757L451.605+302.742Z" fill-rule="evenodd" fill="#ffd966" opacity="1"/>
</g>
</g>
</svg>
